<svg id="Warstwa_1" data-name="Warstwa 1" xmlns="http://www.w3.org/2000/svg" viewBox="0 0 283.46456 283.46456"><defs><style>.cls-1{fill:#fff;}</style></defs><title>logo-ksi-basic-dark-background</title><path id="text2175" class="cls-1" d="M129.92242,49.05561v3.78466q-9.765,1.39455-9.76494,8.56528,0,7.7687,11.15991,9.95963a68.93055,68.93055,0,0,1,15.046-12.101q8.66878-5.2286,15.44454-5.22881,5.08164,0.0002,5.08174,4.58143-0.00011,6.07556-9.96422,11.95156-9.96427,5.87636-23.81446,6.07538-8.1707,8.26666-8.17064,17.529-0.00005,9.76058,9.56563,16.035a62.09349,62.09349,0,0,1,30.29119-7.86811q10.9605,0.00013,10.96063,5.4778-0.00011,3.68519-5.77923,6.27457-5.77936,2.58962-16.64023,2.58951a117.89609,117.89609,0,0,1-17.63664-1.29475Q109.49574,132.119,109.49578,153.333a20.4104,20.4104,0,0,0,6.57638,15.537q6.57634,6.175,21.32339,6.175,2.59065,0,6.97495-.29878,11.45877-.89635,15.44452-0.89637,12.05661,0,17.537,7.76851,5.48022,7.76852,5.48032,19.42129-0.00015,16.33376-8.96779,24.84928-8.96788,8.51542-20.22735,8.51549a18.25478,18.25478,0,0,1-9.86456-2.44011,7.48766,7.48766,0,0,1-3.886-6.62316,6.04426,6.04426,0,0,1,2.04265-4.78062,6.83258,6.83258,0,0,1,4.63338-1.79273,17.49882,17.49882,0,0,1,5.08174,1.09556,34.19913,34.19913,0,0,0,9.86456,1.99192,13.11329,13.11329,0,0,0,10.66169-4.681,17.78133,17.78133,0,0,0,3.886-11.75238,13.941,13.941,0,0,0-2.98925-8.81427q-2.9894-3.83447-9.76494-3.83445-2.98937,0-7.17423.19919-12.45533.69717-16.64023,0.69717-17.73635,0-28.29835-10.358t-10.56206-26.59222q0-25.49658,28.09907-42.72683-10.16354-8.06718-10.1635-18.42532,0-9.76029,8.56922-19.42128-14.24887-3.58529-14.24882-14.54107,0-12.25014,17.03881-12.54914h0Z" transform="translate(-0.00001 -0.25959)"/><path class="cls-1" d="M141.73228,4.25959a137.73223,137.73223,0,0,1,97.3914,235.12368A137.73225,137.73225,0,1,1,44.34087,44.60046,136.83045,136.83045,0,0,1,141.73228,4.25959m0-4A141.73228,141.73228,0,1,0,283.46457,141.99187,141.73225,141.73225,0,0,0,141.73228.25959h0Z" transform="translate(-0.00001 -0.25959)"/><path class="cls-1" d="M27.80713,167.07031c2.56348-.67871,3.02344-0.80078,3.541-0.97266a0.83463,0.83463,0,0,0,.74951-0.9541,3.195,3.195,0,0,0-.09863-0.57227,0.11835,0.11835,0,0,1,.064-0.15723c0.09863-.02637.15332,0.04688,0.20117,0.22852,0.1958,0.73926.41162,1.75586,0.45068,1.90332,0.03906,0.14844.34961,1.12109,0.47949,1.61328,0.04785,0.18066.03711,0.27148-.06152,0.29688a0.11786,0.11786,0,0,1-.1333-0.10449,2.56643,2.56643,0,0,0-.1582-0.39844c-0.18311-.42578-0.51367-0.47949-1.09766-0.36035-0.53467.10645-.99463,0.22852-3.55859,0.90723l-2.30029.6084c-2.3667.626-3.24658,1.42188-3.7334,2.30664a3.32929,3.32929,0,0,0-.24707,2.7207,3.56806,3.56806,0,0,0,1.86621,2.2666,6.59378,6.59378,0,0,0,4.27832-.1123l2.0542-.543c2.56348-.67871,3.02393-0.80078,3.541-0.97266a0.834,0.834,0,0,0,.74951-0.9541,3.15021,3.15021,0,0,0-.09814-0.57227,0.11854,0.11854,0,0,1,.06348-0.15723c0.09863-.02637.15332,0.04785,0.20117,0.23145,0.1958,0.74023.38574,1.65723,0.41162,1.75586,0.03076,0.11523.28418,0.875,0.41455,1.36328,0.04785,0.18066.03662,0.27148-.062,0.29785a0.11911,0.11911,0,0,1-.1333-0.10547,2.50236,2.50236,0,0,0-.15771-0.39746,0.822,0.822,0,0,0-1.09766-.36035c-0.53467.10645-.99463,0.22754-3.55859,0.90625l-1.7583.46484c-1.7749.46973-3.79932,0.79492-5.314-.21094a4.98121,4.98121,0,0,1-2.11182-3.06348,5.22014,5.22014,0,0,1,.271-3.69434c0.55908-1.00977,1.54443-1.93848,3.94385-2.57324Z" transform="translate(-0.00001 -0.25959)"/><path class="cls-1" d="M26.91846,184.88574c-1.08838.48242-1.36719,0.74316-1.30713,1.15918a3.57514,3.57514,0,0,0,.20459.72461,0.1161,0.1161,0,0,1-.06494.15527c-0.07861.03223-.14893-0.0498-0.21338-0.208-0.32178-.78613-0.5-1.35547-0.55127-1.48145-0.05176-.126-0.3374-0.68848-0.59473-1.31738-0.05811-.1416-0.07422-0.22656.02-0.26562a0.11633,0.11633,0,0,1,.15527.06543,2.34382,2.34382,0,0,0,.31006.53418c0.23633,0.30762.61768,0.20605,1.82861-.28906l7.66162-3.13672c0.53467-.21875.7085-0.19824,0.75391-0.08789a1.35469,1.35469,0,0,1-.19043.70215c-0.12988.31055-1.44531,3.2002-2.772,6.24121-0.85547,1.94824-1.83936,4.07715-2.106,4.68262l6.644-2.88477c0.8584-.37012,1.12549-0.57129,1.03027-1.02832a4.80519,4.80519,0,0,0-.21436-0.70215,0.11792,0.11792,0,0,1,.08105-0.16113c0.07861-.03223.13965,0.07129,0.20361,0.22559,0.25781,0.62988.49658,1.30273,0.561,1.46s0.28271,0.60059.51465,1.16992c0.05762,0.1416.08691,0.25879,0.0083,0.291a0.16963,0.16963,0,0,1-.18994-0.10645,1.70263,1.70263,0,0,0-.167-0.31738c-0.28076-.418-0.561-0.33984-1.36377-0.01074l-7.84717,3.1748c-0.88086.36035-.96582,0.377-1.00488,0.2832a2.75713,2.75713,0,0,1,.38672-1.38965c0.06787-.19238,1.2168-2.99512,2.144-5.083,1.02637-2.29395,2.0249-4.52148,2.32324-5.13867Z" transform="translate(-0.00001 -0.25959)"/><path class="cls-1" d="M35.582,198.53809c-1.23389.64941-2.2417,1.17969-2.73682,1.51758a0.65536,0.65536,0,0,0-.42383.83691,6.07776,6.07776,0,0,0,.25684.63379,0.11627,0.11627,0,0,1-.0498.16113c-0.06006.03125-.13721-0.00488-0.21631-0.1543-0.38818-.7373-0.79443-1.61914-0.82617-1.67969-0.03955-.0752-0.52-0.87891-0.73389-1.28516-0.07129-.13574-0.08057-0.22656-0.00537-0.2666a0.11561,0.11561,0,0,1,.16064.0498,2.1303,2.1303,0,0,0,.27393.375,0.71021,0.71021,0,0,0,.85938-0.01074c0.55811-.2168,1.57422-0.73242,2.80762-1.38184l2.25684-1.1875c1.98584-1.0459,2.34717-1.23535,2.7373-1.47949a0.672,0.672,0,0,0,.4707-0.78516,2.71185,2.71185,0,0,0-.16895-0.43066,0.12723,0.12723,0,0,1,.0498-0.16016c0.0752-.04.13721,0.00488,0.21631,0.15527,0.22949,0.43652.63525,1.28027,0.6748,1.35547,0.03174,0.05957.51318,0.90137,0.72705,1.30762,0.0791,0.15039.08057,0.22559,0.00537,0.26563a0.145,0.145,0,0,1-.16064-0.0498,1.64824,1.64824,0,0,0-.20459-0.31543c-0.26514-.32129-0.48535-0.30176-0.95264-0.09375-0.41406.19824-.7749,0.38867-2.76074,1.43359Z" transform="translate(-0.00001 -0.25959)"/><path class="cls-1" d="M42.35059,213.39844l0.03809,0.05664c1.1958-.35547,5.415-1.58008,7.24658-2.17969a3.009,3.009,0,0,0,.84229-0.3623c0.21191-.14258.28613-0.33691-0.09424-0.90039a0.147,0.147,0,0,1,.03662-0.18945c0.05664-.03809.123,0,0.22754,0.15527,0.42773,0.63477.751,1.17578,0.82715,1.28809,0.05713,0.085.44629,0.60156,0.70313,0.98145,0.07617,0.1123.08594,0.18848,0.04346,0.2168a0.13694,0.13694,0,0,1-.20264-0.02734,2.46641,2.46641,0,0,0-.3418-0.38477,2.312,2.312,0,0,0-1.81055.05176c-1.89355.47656-6.52734,1.81641-8.19971,2.22656-1.10645.27441-1.29541,0.29883-1.39014,0.1582a0.90016,0.90016,0,0,1,.34473-0.82715l4.9209-6.8457c-1.32861.28027-6.84473,1.55957-8.2627,1.85938-0.6499.13086-.834,0.13184-0.9292-0.00977-0.08545-.127-0.0249-0.31055.62158-1.11621l5.623-6.99023a1.25166,1.25166,0,0,0,.46484-1.25684,2.81819,2.81819,0,0,0-.30957-0.6123,0.13391,0.13391,0,0,1,.03662-0.18848c0.05664-.03809.1416,0.02734,0.21777,0.14063,0.437,0.64844.87451,1.3584,0.96045,1.48535,0.07617,0.1123.48438,0.65723,0.90283,1.27832,0.11377,0.16895.12354,0.24414,0.06738,0.28223a0.14825,0.14825,0,0,1-.19824-0.05078,1.26676,1.26676,0,0,0-.36523-0.38965,0.2933,0.2933,0,0,0-.36768.002,8.41251,8.41251,0,0,0-.95264.99023c-0.62793.71094-4.17139,4.94629-4.56055,5.43359l0.019,0.02832,8.44629-1.9209c0.603-.14062.73047-0.10352,0.77832-0.03223a0.98606,0.98606,0,0,1-.33594.71777Z" transform="translate(-0.00001 -0.25959)"/><path class="cls-1" d="M51.48535,217.58984c1.69385-1.4707,2.002-1.73828,2.32617-2.06445a0.65808,0.65808,0,0,0,.20215-0.98535,4.9732,4.9732,0,0,0-.30859-0.40723,0.14394,0.14394,0,0,1,.01172-0.168c0.064-.05566.13428-0.02637,0.24561,0.10156,0.4458,0.51367,1.05518,1.26758,1.11084,1.33105,0.06689,0.07715,2.10352,2.4502,2.33887,2.69531,0.20215,0.207.41895,0.37891,0.50977,0.458a0.91989,0.91989,0,0,1,.18506.10938c0.03369,0.03809-.00684.0957-0.05811,0.13965-0.07715.06738-.26074,0.11426-0.59131,0.35645-0.11377.07617-.62354,0.47363-0.77441,0.55957a0.18274,0.18274,0,0,1-.20459-0.00293c-0.05566-.06348-0.02637-0.13379.06348-0.21191a1.589,1.589,0,0,0,.3291-0.39844c0.11279-.2334.08984-0.415-0.36816-1.09863-0.14111-.21387-1.26465-1.53418-1.376-1.66309-0.04443-.05078-0.09424-0.03027-0.17139.03613l-2.96436,2.57324c-0.07666.06738-.11523,0.10059-0.05957,0.165,0.12256,0.14063,1.41455,1.62891,1.66309,1.86328a1.13423,1.13423,0,0,0,.63281.41895,0.57614,0.57614,0,0,1,.28613.04395c0.0332,0.03809.02979,0.08594-.03418,0.1416a7.65953,7.65953,0,0,0-.68115.43457c-0.24023.16309-.67334,0.49414-0.75049,0.56055-0.08984.07813-.22754,0.15332-0.29443,0.07617a0.11012,0.11012,0,0,1,.03613-0.166A1.29567,1.29567,0,0,0,53.104,222.125c0.12061-.17285.16016-0.38672-0.16748-0.86719-0.229-.3418-1.26318-1.55859-1.43018-1.752a0.08962,0.08962,0,0,0-.14355-0.00977l-0.91113.791c-0.37256.32324-1.65381,1.41309-1.86084,1.61523-0.70947.66016-.67236,0.98828,0.29688,2.10449a5.00069,5.00069,0,0,0,1.0957,1.0293,1.092,1.092,0,0,0,1.20264-.14648c0.15088-.08594.21143-0.09375,0.26709-0.0293s-0.02295.15527-.1001,0.22461a11.86645,11.86645,0,0,1-1.186.75879c-0.34912.168-.44922,0.05273-0.82812-0.38379-0.73486-.84668-1.27734-1.52344-1.66553-1.99609-0.38623-.49707-0.64258-0.793-0.7876-0.959-0.022-.02637-0.21143-0.24414-0.436-0.47656-0.20215-.207-0.438-0.45312-0.59375-0.63281-0.1001-.11523-0.13037-0.20215-0.06592-0.25781a0.11508,0.11508,0,0,1,.16748.0127,4.45414,4.45414,0,0,0,.35205.30176c0.228,0.18457.46826,0.02051,0.834-.20605a29.726,29.726,0,0,0,2.417-1.98535Z" transform="translate(-0.00001 -0.25959)"/><path class="cls-1" d="M58.58789,225.36328c1.543-1.62988,1.82324-1.92578,2.11426-2.28223a0.65833,0.65833,0,0,0,.105-1.001,4.69439,4.69439,0,0,0-.34717-0.376,0.14373,0.14373,0,0,1-.00439-0.168c0.05859-.06152.13135-0.04,0.25439,0.07422,0.49414,0.46777,1.19873,1.18164,1.26074,1.24023,0.11084,0.10547,1.04785.94531,1.38135,1.26367a4.906,4.906,0,0,1,1.5918,2.374,2.53254,2.53254,0,0,1-.603,2.14453,4.21911,4.21911,0,0,1-3.60059,1.13281c-0.16309,1.95215-.31006,3.61621-0.2998,4.86621a2.82326,2.82326,0,0,0,.86768,2.27344,0.13208,0.13208,0,0,1,.01709.17969c-0.05859.06152-.14355,0.02832-0.34131-0.15918l-0.67871-.64258a3.01394,3.01394,0,0,1-.96191-1.30859,7.63773,7.63773,0,0,1-.02-2.94531c0.08057-1.001.24219-2.13574,0.27637-2.6416a0.22906,0.22906,0,0,0-.08984-0.20215l-1.35889-1.333a0.096,0.096,0,0,0-.15576.01563l-0.23389.24707c-0.9585,1.0127-1.73,1.82715-2.08984,2.30566a0.68016,0.68016,0,0,0-.09375.96484,5.34343,5.34343,0,0,0,.43457.50488,0.10707,0.10707,0,0,1,.00488.16895c-0.04687.04883-.13135,0.03906-0.25488-0.07812-0.59229-.56055-1.24854-1.252-1.29785-1.29883-0.0127-.01172-0.77588-0.66406-1.10937-0.97949-0.11084-.10547-0.14941-0.18848-0.09082-0.25a0.115,0.115,0,0,1,.168-0.00488,2.11915,2.11915,0,0,0,.38037.26563c0.25635,0.14941.46826-.02441,0.80957-0.28613a29.62222,29.62222,0,0,0,2.2124-2.21289Zm0.09668,1.77734a0.21222,0.21222,0,0,0-.05469.20508,5.07274,5.07274,0,0,0,1.04541,1.29492,1.943,1.943,0,0,0,.99023.58594,2.57919,2.57919,0,0,0,2.17383-.98535c1.23877-1.30859,1.23584-2.73926.07568-3.83789a6.50514,6.50514,0,0,0-.83643-0.6748,0.18257,0.18257,0,0,0-.20312.042Z" transform="translate(-0.00001 -0.25959)"/><path class="cls-1" d="M62.7876,237.99414c-0.09766-.20605-0.07959-0.25684.16162-0.56445,0.44043-.56152.8501-0.97461,1.01025-1.15234,0.09424-.12012.17334-0.166,0.24023-0.11328a0.13747,0.13747,0,0,1,.00244.21777,2.15784,2.15784,0,0,0-.28467.44629,2.19905,2.19905,0,0,0,.97949,2.58105,1.94934,1.94934,0,0,0,2.95068-.12891c0.63965-.81641.502-1.5498,0.06641-3.14355l-0.2207-.82129c-0.52734-1.94531-.397-2.9668.22168-3.75586,1.04785-1.33887,2.73438-1.31348,4.28662-.09766a7.24977,7.24977,0,0,1,1.11279,1.08789,1.91882,1.91882,0,0,0,.373.37891c0.09375,0.07324.10986,0.10742,0.05762,0.1748a15.20434,15.20434,0,0,0-.99707,1.16211c-0.13623.17383-.2124,0.24414-0.293,0.18066-0.08008-.0625-0.05176-0.127.0083-0.23047a2.67736,2.67736,0,0,0,.26611-0.69824,2.175,2.175,0,0,0-1.085-1.75781,1.71979,1.71979,0,0,0-2.53027.00488c-0.56592.72266-.52979,1.4209,0.01611,3.12207l0.15625,0.48926c0.6665,2.09863.54346,3.27637-.22168,4.25293A2.819,2.819,0,0,1,66.44727,240.71a4.57843,4.57843,0,0,1-2.188-1.06641A5.49283,5.49283,0,0,1,62.7876,237.99414Z" transform="translate(-0.00001 -0.25959)"/><path class="cls-1" d="M75.59961,242.97949a2.57475,2.57475,0,0,0,.53516-1.416c0.02051-.25.0752-4.0459,0.06445-4.96484a3.75338,3.75338,0,0,0-.25244-1.4209,1.47065,1.47065,0,0,0-.416-0.51367,0.14963,0.14963,0,0,1-.0542-0.19727c0.03711-.05664.09814-0.05762,0.21191,0.01172,0.24268,0.15723,1.16455.79688,1.22168,0.834,0.08545,0.05566.61719,0.36035,1.10156,0.68066,0.14258,0.09277.15234,0.13965,0.11572,0.19629a0.34536,0.34536,0,0,1-.2832-0.001,0.248,0.248,0,0,0-.28613.09766,1.181,1.181,0,0,0-.13477.58105L77.249,242.126c0.58984-.34668,3.84326-1.92187,4.33057-2.17187a1.54534,1.54534,0,0,0,.62158-0.48828,0.33174,0.33174,0,0,0,.00439-0.44336,0.24507,0.24507,0,0,1-.09277-0.2627c0.02783-.043.11768-0.02539,0.24561,0.05273,0.32764,0.21387.751,0.5293,0.85107,0.59375,0.08545,0.05566,1.00146.61035,1.24414,0.76855a0.16608,0.16608,0,0,1,.11035.17285,0.17929,0.17929,0,0,1-.24023.03125,1.5292,1.5292,0,0,0-.686-0.22266,2.58948,2.58948,0,0,0-1.01611.19043c-0.728.21582-4.34766,1.918-4.938,2.26465a2.886,2.886,0,0,0-.94385,1.10938l-0.67627,1.04c-0.12939.19922-.46289,0.71289-0.74414,1.23926a0.66729,0.66729,0,0,0,.06738.95605,5.76011,5.76011,0,0,0,.5332.42773,0.11569,0.11569,0,0,1,.03467.165c-0.03662.05664-.13574,0.05273-0.26416-0.03027-0.69824-.4541-1.48291-1.02441-1.5542-1.07129-0.05713-.03711-0.88281-0.5127-1.25342-0.75293-0.14258-.09277-0.18115-0.1582-0.13477-0.22949a0.11479,0.11479,0,0,1,.16455-0.03516,2.011,2.011,0,0,0,.40771.18359,0.69594,0.69594,0,0,0,.7876-0.40039c0.35254-.48047.686-0.99316,0.81543-1.19336Z" transform="translate(-0.00001 -0.25959)"/><path class="cls-1" d="M86.91211,249.05762c-0.64307,1.23633-1.16846,2.24609-1.38281,2.80566a0.66626,0.66626,0,0,0,.15967.94434,5.53262,5.53262,0,0,0,.57178.374,0.1068,0.1068,0,0,1,.05029.16113c-0.03125.05957-.11523,0.07422-0.26562-0.00488-0.72363-.376-1.54443-0.86035-1.62012-0.89941-0.06006-.03125-1.00342-0.46484-1.395-0.66895-0.15088-.07812-0.1958-0.13965-0.15625-0.21484a0.10288,0.10288,0,0,1,.15234-0.03613,1.9834,1.9834,0,0,0,.42334.14355,0.73714,0.73714,0,0,0,.75293-0.48926c0.335-.49609.86035-1.50684,1.50342-2.74219l2.7998-5.38281-1.93018-.96582c-0.83691-.416-1.20068-0.49023-1.55371-0.291a2.36388,2.36388,0,0,0-.42285.29785,0.14246,0.14246,0,0,1-.19824.0498,0.11283,0.11283,0,0,1-.03564-0.15234c0.0708-.13574.938-1.14062,1.0083-1.23828a0.57313,0.57313,0,0,1,.26123-0.1709,5.01909,5.01909,0,0,0,.50928.457c0.35352,0.24121.85791,0.52246,1.00879,0.60156l5.00537,2.60352a7.339,7.339,0,0,0,.981.43359c0.21143,0.07227.34814,0.10449,0.4082,0.13574,0.06055,0.03223.021,0.10742-.01807,0.18262-0.2041.3916-.72754,1.28809-0.80615,1.43848a0.16271,0.16271,0,0,1-.20654.10352c-0.06055-.03125-0.06689-0.09277.01172-0.28125l0.05566-.14355c0.15869-.415.02148-0.85059-1.22949-1.54l-1.64258-.89258Z" transform="translate(-0.00001 -0.25959)"/><path class="cls-1" d="M95.5376,250.30859c0.84619-2.0791.99951-2.457,1.14111-2.89453a0.6581,0.6581,0,0,0-.26562-0.9707,4.678,4.678,0,0,0-.45947-0.22363,0.14525,0.14525,0,0,1-.06543-0.15527c0.03223-.0791.10791-0.085,0.26514-0.02051,0.62988,0.25586,1.51465.65332,1.59375,0.68457,0.09424,0.03906,2.98535,1.23438,3.30664,1.34668,0.27441,0.09277.54541,0.14844,0.66211,0.17676a0.96312,0.96312,0,0,1,.21436.01465c0.04736,0.01855.0376,0.08887,0.01172,0.15137-0.03809.09473-.18115,0.21973-0.36621,0.585-0.06738.12012-.34229,0.70508-0.438,0.84961a0.183,0.183,0,0,1-.18359.09082c-0.07861-.03223-0.08447-0.1084-0.03955-0.21777a1.57991,1.57991,0,0,0,.11328-0.50488c-0.00439-.25879-0.10791-0.41113-0.8252-0.81348-0.22363-.127-1.82324-0.79687-1.981-0.86035-0.0625-.02637-0.09766.01465-0.13623,0.10938l-1.48047,3.6377c-0.03857.09375-.05762,0.1416,0.021,0.17383,0.17334,0.07031,2,.81348,2.32764.91016a1.13578,1.13578,0,0,0,.75439.08691,0.573,0.573,0,0,1,.2749-0.08984c0.04736,0.01855.06592,0.06348,0.03418,0.1416a7.93955,7.93955,0,0,0-.41162.69531c-0.14062.25488-.377,0.74609-0.41553,0.84082-0.04492.11035-.13379,0.23926-0.22852,0.2002a0.10964,0.10964,0,0,1-.043-0.16406,1.27854,1.27854,0,0,0,.11621-0.4668c0.02979-.208-0.03223-0.417-0.542-0.69727-0.35889-.20117-1.83252-0.81934-2.06885-0.916a0.08979,0.08979,0,0,0-.13281.05664l-0.45508,1.11816c-0.18555.45605-.83594,2.00879-0.9292,2.2832-0.3335.91016-.15234,1.18555,1.21777,1.74316a4.986,4.986,0,0,0,1.44336.42285,1.098,1.098,0,0,0,1.00781-.67285c0.0957-.14453.14648-0.17871,0.2251-0.14746,0.07861,0.03223.0498,0.14941,0.01123,0.24316a12.0772,12.0772,0,0,1-.71436,1.21484c-0.23535.30762-.37744,0.25-0.9126,0.03223-1.03955-.42285-1.82959-0.78125-2.39014-1.02734-0.56982-.26953-0.93213-0.416-1.13672-0.5-0.03125-.0127-0.29932-0.12109-0.605-0.22754-0.27393-.09277-0.59521-0.20605-0.81592-0.29492-0.1416-.05762-0.20752-0.12207-0.17529-0.2002a0.11453,0.11453,0,0,1,.15479-0.06543,4.539,4.539,0,0,0,.45117.11035c0.28662,0.06152.42725-.19336,0.65039-0.56152a29.50374,29.50374,0,0,0,1.25781-2.86523Z" transform="translate(-0.00001 -0.25959)"/><path class="cls-1" d="M107.72607,257.377c-0.40186,1.33594-.73,2.42676-0.83594,3.01563a0.66788,0.66788,0,0,0,.333.89941,5.81834,5.81834,0,0,0,.63135.26074,0.10658,0.10658,0,0,1,.08008.14844c-0.01953.06543-.09961,0.09473-0.26221,0.0459-0.78174-.23535-1.67871-0.55859-1.76025-0.583-0.06494-.01953-1.07275-0.26953-1.49609-0.39746-0.16309-.04883-0.21826-0.10059-0.19385-0.18262a0.10271,0.10271,0,0,1,.14355-0.0625,1.953,1.953,0,0,0,.44287.06152,0.73682,0.73682,0,0,0,.64844-0.62109c0.23682-.55078.56494-1.6416,0.96631-2.97656l1.749-5.8125-2.07764-.58887c-0.90039-.25293-1.27148-0.25879-1.58154.00293a2.35566,2.35566,0,0,0-.35986.37109,0.14329,0.14329,0,0,1-.186.08691,0.11333,0.11333,0,0,1-.063-0.14355c0.04395-.14648.709-1.2959,0.75977-1.40527a0.5727,0.5727,0,0,1,.2251-0.21582,5.12935,5.12935,0,0,0,.58594.35352c0.39209,0.1709.94092,0.35449,1.10352,0.40332l5.40527,1.626a7.50729,7.50729,0,0,0,1.04541.24316c0.22168,0.03125.36133,0.03809,0.42676,0.05762,0.06494,0.01953.04053,0.10059,0.01611,0.18262-0.12744.42285-.4751,1.40137-0.52393,1.56445a0.16226,0.16226,0,0,1-.18408.13965c-0.06543-.01953-0.083-0.07812-0.04053-0.27832l0.02783-.15137c0.07861-.43848-0.1377-0.84082-1.49561-1.28418l-1.78125-.57129Z" transform="translate(-0.00001 -0.25959)"/><path class="cls-1" d="M115.85449,256.93262c0.40869-2.20605.48291-2.60645,0.5332-3.06445a0.67315,0.67315,0,0,0-.45605-0.89648,4.78484,4.78484,0,0,0-.49512-0.126,0.14554,0.14554,0,0,1-.09521-0.13867c0.01563-.084.08887-0.10449,0.25586-0.07031,0.668,0.124,1.54736.32129,1.68115,0.34668,0.13379,0.02441,1.05908.16113,1.49316,0.23828,0.167,0.03125.24463,0.08008,0.229,0.16309a0.145,0.145,0,0,1-.15527.09277,1.75968,1.75968,0,0,0-.37354-0.03516c-0.397-.00391-0.52686.23145-0.647,0.69238-0.11719.44531-.19141,0.8457-0.60059,3.05176L116.856,259.1748c-0.38135,2.05469-.08789,2.99121.44141,3.67676a2.90929,2.90929,0,0,0,2.04639,1.17383,3.064,3.064,0,0,0,2.458-.58105,5.323,5.323,0,0,0,1.47363-3.28711l0.33154-1.78711c0.40869-2.20605.46631-2.61035,0.5332-3.06445a0.65193,0.65193,0,0,0-.439-0.89355,4.78482,4.78482,0,0,0-.49512-0.126,0.128,0.128,0,0,1-.09521-0.13867c0.01563-.084.08838-0.10449,0.25537-0.07031,0.65186,0.12109,1.49756.3125,1.58105,0.32813,0.10059,0.01855.80859,0.11523,1.24268,0.19141,0.16748,0.03125.228,0.07715,0.2124,0.16113a0.12729,0.12729,0,0,1-.13867.09473,1.71,1.71,0,0,0-.37354-0.03418,0.67337,0.67337,0,0,0-.66357.68848c-0.11719.44531-.1748,0.84961-0.5835,3.05469l-0.28223,1.52051c-0.28467,1.53711-.8042,3.2207-2.15967,4.00684a4.52466,4.52466,0,0,1-3.2666.46582,4.66525,4.66525,0,0,1-2.87158-1.56934c-0.59473-.80176-0.98-1.89258-0.5957-3.96484Z" transform="translate(-0.00001 -0.25959)"/><path class="cls-1" d="M137.81543,262.55176c-0.1084,2.751-.15039,3.80469-0.70752,4.99023a6.41351,6.41351,0,0,1-2.582,2.5,6.83246,6.83246,0,0,1-.6792.39844,0.24663,0.24663,0,0,1-.12012.0293,0.11213,0.11213,0,0,1-.11475-0.10645,0.36514,0.36514,0,0,1,.24756-0.24512,3.3547,3.3547,0,0,0,.61328-0.45215c1.14795-1.07715,1.71045-1.957,1.8833-6.33887l0.19434-4.90723c0.10449-2.64941.12354-3.125,0.11084-3.66992a0.83439,0.83439,0,0,0-.69189-0.99707,3.27629,3.27629,0,0,0-.57568-0.07422,0.11823,0.11823,0,0,1-.13184-0.10645c0.00439-.10254.09033-0.13281,0.27734-0.123,0.76416,0.03027,1.832.124,1.917,0.127,0.085,0.00391,1.15674-.00488,1.6665.01172,0.18652,0.00781.27051,0.04492,0.26611,0.14746a0.11811,0.11811,0,0,1-.13965.0957,2.674,2.674,0,0,0-.42676.03418,0.81288,0.81288,0,0,0-.6665.94336c-0.05566.542-.07422,1.01758-0.1792,3.667Z" transform="translate(-0.00001 -0.25959)"/><path class="cls-1" d="M146.15332,255.72949c0.167-.4834.23145-0.57129,0.333-0.5752a0.71205,0.71205,0,0,1,.37891.51172c0.29688,0.60059,2.9375,6.46191,3.94531,8.61523,0.59668,1.26855,1.01172,1.43848,1.33887,1.52637a2.03488,2.03488,0,0,0,.59766.06055,0.16141,0.16141,0,0,1,.19238.11133,0.3229,0.3229,0,0,1-.335.13281c-0.2207.00879-1.3252,0.05469-2.3623,0.06348a0.70371,0.70371,0,0,1-.53027-0.08008c-0.00293-.06738.03125-0.06934,0.09766-0.10645a0.27034,0.27034,0,0,0,.11914-0.39551l-1.47852-3.25684a0.11553,0.11553,0,0,0-.13867-0.0791l-3.44824.14258a0.15794,0.15794,0,0,0-.14746.125l-0.75391,2.34473a2.98385,2.98385,0,0,0-.18066.97754,0.42885,0.42885,0,0,0,.52539.36914l0.13574-.00488c0.11914-.00488.15527,0.04395,0.1582,0.1123,0.00293,0.085-.08008.12207-0.21582,0.12793-0.35645.01465-1.17383-.00293-1.34375,0.00488-0.15332.00586-.89844,0.08789-1.50977,0.11328-0.18652.00781-.29-0.02246-0.29346-0.10742a0.13131,0.13131,0,0,1,.13086-0.124,4.22,4.22,0,0,0,.44043-0.05273,1.65579,1.65579,0,0,0,1.20166-1.376Zm1.91211,5.94336c0.06836-.00293.06641-0.03711,0.04688-0.10449l-1.64062-3.89551q-0.14209-.32666-0.25488.01074l-1.22949,4.01465q-0.02051.10254,0.05566,0.09961Z" transform="translate(-0.00001 -0.25959)"/><path class="cls-1" d="M163.33887,260.877c-0.17773-1.15918-.2373-1.32227-0.85937-1.34668a4.79515,4.79515,0,0,0-.50977.04395,0.14591,0.14591,0,0,1-.13574-0.09961c-0.01465-.10059.0498-0.12793,0.21777-0.15332,0.67188-.10352,1.668-0.22168,1.752-0.23535,0.06738-.00977.98633-0.18555,1.43945-0.25488,0.168-.02637.23828-0.01953,0.25391,0.08105a0.145,0.145,0,0,1-.09961.13574,1.66452,1.66452,0,0,0-.36426.09082,0.66614,0.66614,0,0,0-.43359.874c0.05273,0.45605.11719,0.876,0.21,1.48145l0.24512,1.5957c0.10059,0.65527.08594,0.6748-.083,0.80371a8.435,8.435,0,0,1-8.15039.33984,5.53109,5.53109,0,0,1-2.3877-3.79492,5.4064,5.4064,0,0,1,1.75-5.06641,7.52108,7.52108,0,0,1,3.792-1.51074,12.4452,12.4452,0,0,1,2.30371-.1123,6.52621,6.52621,0,0,0,1.21582-.03223c0.15137-.02344.19531,0.03906,0.20605,0.10645,0.03125,0.20117.00586,0.60059,0.22559,2.02832,0.03613,0.23535-.02148.3125-0.12207,0.32813-0.084.0127-.11328-0.06836-0.13379-0.20312a2.16611,2.16611,0,0,0-.48047-0.88867c-0.45215-.48145-1.666-0.87988-3.58105-0.58594a4.74992,4.74992,0,0,0-2.94922,1.39844,4.502,4.502,0,0,0-.91016,3.82031,5.75174,5.75174,0,0,0,2.16895,3.708,5.34182,5.34182,0,0,0,4.00977.915,3.766,3.766,0,0,0,1.55469-.51367,0.43237,0.43237,0,0,0,.23535-0.4834Z" transform="translate(-0.00001 -0.25959)"/><path class="cls-1" d="M171.63379,258.50586c0.33789,1.35254.61426,2.458,0.82422,3.01855a0.65587,0.65587,0,0,0,.71289.61035,6.05853,6.05853,0,0,0,.67676-0.09863,0.11457,0.11457,0,0,1,.14355.08691c0.0166,0.06543-.03711.13184-0.20215,0.17285-0.80762.20215-1.76074,0.3877-1.82617,0.4043-0.083.02051-.97754,0.2959-1.42285,0.40723-0.14844.03711-.23926,0.02539-0.25977-0.05762a0.11506,0.11506,0,0,1,.08691-0.14453,2.13473,2.13473,0,0,0,.42871-0.17676,0.70949,0.70949,0,0,0,.19336-0.83691c-0.07812-.59375-0.33691-1.70312-0.6748-3.05566l-0.61816-2.47461c-0.54395-2.17676-.64258-2.57324-0.78711-3.00977a0.67066,0.67066,0,0,0-.65137-0.64355,2.68612,2.68612,0,0,0-.458.06152,0.12658,0.12658,0,0,1-.14355-0.08691c-0.02148-.082.03711-0.13184,0.20215-0.17676,0.47754-.12012,1.39355-0.31348,1.47559-0.334,0.06641-.0166.998-0.28418,1.44336-0.3916,0.165-.041.23926-0.02441,0.25977,0.05762a0.14327,0.14327,0,0,1-.08691.14453,1.72775,1.72775,0,0,0-.35449.124c-0.375.18164-.40821,0.39941-0.31738,0.90234,0.09473,0.4502.19336,0.8457,0.7373,3.02344Z" transform="translate(-0.00001 -0.25959)"/><path class="cls-1" d="M176.58984,254.47559c-0.70117-2.13086-.82812-2.51855-1.00391-2.94336a0.659,0.659,0,0,0-.83105-0.56836c-0.11816.02148-.36523,0.085-0.49512,0.127a0.14293,0.14293,0,0,1-.14941-0.0752c-0.02734-.08105.02734-0.13477,0.18848-0.1875,0.64551-.21289,1.57617-0.48242,1.65723-0.50977,0.09668-.03125,3.07227-0.99219,3.39063-1.11523,0.26855-.10645.51074-0.23926,0.61914-0.293a0.95721,0.95721,0,0,1,.17188-0.12793c0.04883-.01562.08594,0.043,0.10742,0.10742,0.03223,0.09766.00391,0.28516,0.09961,0.68359,0.02637,0.13379.19531,0.75781,0.21582,0.93066a0.1817,0.1817,0,0,1-.08105.1875c-0.08008.02637-.13379-0.02734-0.1709-0.14062a1.61578,1.61578,0,0,0-.24023-0.458c-0.1709-.19336-0.34863-0.24316-1.15527-0.085-0.25293.04785-1.9043,0.57324-2.06641,0.626-0.06445.02148-.06445,0.0752-0.03223,0.17188l1.22656,3.72949c0.03125,0.09668.04785,0.14551,0.12793,0.11816,0.17773-.05762,2.05078-0.67383,2.3623-0.8125a1.13261,1.13261,0,0,0,.63086-0.42187,0.60289,0.60289,0,0,1,.15137-0.24707c0.04883-.01562.0918,0.00586,0.11816,0.08691a7.59172,7.59172,0,0,0,.13672.7959c0.05762,0.28516.19531,0.8125,0.22754,0.90918,0.03711,0.11328.05273,0.26855-.04492,0.30078a0.10961,0.10961,0,0,1-.13867-0.09766,1.294,1.294,0,0,0-.21387-0.43066c-0.1123-.17773-0.29395-0.29687-0.86426-0.18066-0.40332.0791-1.92578,0.56152-2.168,0.6416a0.0897,0.0897,0,0,0-.06543.12891l0.377,1.14648c0.1543,0.46777.66406,2.07129,0.77051,2.34082,0.335,0.90918.65137,1.002,2.05566,0.54a4.9753,4.9753,0,0,0,1.373-.61328,1.094,1.094,0,0,0,.332-1.165c-0.02051-.17187-0.00391-0.23145.07617-0.25781,0.08105-.02637.13477,0.08105,0.166,0.17871a11.82427,11.82427,0,0,1,.24219,1.3877c0.01953,0.38672-.126.43457-0.6748,0.61523-1.06543.35059-1.89941,0.58887-2.48535,0.76367-0.6084.165-.97949,0.28711-1.18945,0.35547-0.03223.01074-.30664,0.10156-0.6084,0.21777-0.26855.10645-.58594,0.22949-0.8125,0.30371-0.14551.04785-.23633,0.042-0.2627-0.03906a0.11563,0.11563,0,0,1,.0752-0.15039,4.11617,4.11617,0,0,0,.415-0.208c0.25879-.13867.2002-0.42285,0.13184-0.84766a29.433,29.433,0,0,0-.89551-2.99707Z" transform="translate(-0.00001 -0.25959)"/><path class="cls-1" d="M188.65332,252.78711c0.83984,1.95313,1.21289,2.7373,1.56348,2.86426a3.18531,3.18531,0,0,0,1.96289-.47363,2.29612,2.29612,0,0,0,1.48145-1.11719,1.76734,1.76734,0,0,0,.00586-0.8916,0.18728,0.18728,0,0,1,.06738-0.23242c0.0625-.02637.12012,0.02246,0.18066,0.16309a9.13068,9.13068,0,0,1,.36719,1.415c0.041,0.35352.01367,0.41992-.7207,0.73535-0.98437.42383-1.75684,0.73633-2.41016,0.98047-0.63184.25293-1.10742,0.43945-1.51367,0.61328-0.0625.02734-.29687,0.12793-0.55566,0.25781-0.27441.13672-.56445,0.2793-0.7832,0.373-0.14062.06055-.23242,0.06348-0.26562-0.01465a0.1158,0.1158,0,0,1,.06152-0.15723,2.08217,2.08217,0,0,0,.39551-0.24316,0.7331,0.7331,0,0,0,.05664-0.85742,29.41051,29.41051,0,0,0-1.15625-2.90918l-1.00781-2.34375c-0.88574-2.0625-1.04687-2.4375-1.25977-2.8457a0.65793,0.65793,0,0,0-.87793-0.49219,4.775,4.775,0,0,0-.48242.16992,0.14552,0.14552,0,0,1-.15625-0.0625c-0.0332-.07812.01563-0.13672,0.17188-0.2041,0.625-.26855,1.498-0.60645,1.57617-0.63965,0.0625-.02734,1.08008-0.502,1.502-0.68262,0.14063-.05957.23242-0.0625,0.26563,0.01563a0.12652,0.12652,0,0,1-.06934.14063c-0.09375.04-.29,0.14355-0.43945,0.22656-0.373.252-.36328,0.48926-0.19336,0.97168,0.166,0.42773.32715,0.80273,1.21289,2.86523Z" transform="translate(-0.00001 -0.25959)"/><path class="cls-1" d="M197.98047,248.35156c1.00293,1.873,1.44238,2.62109,1.80273,2.71777a3.17,3.17,0,0,0,1.91309-.63965,2.29715,2.29715,0,0,0,1.37988-1.24023,1.76536,1.76536,0,0,0-.07031-0.8877,0.18678,0.18678,0,0,1,.04688-0.2373c0.05957-.03125.12109,0.01172,0.19336,0.14746a9.09693,9.09693,0,0,1,.48828,1.37793c0.07031,0.34766.0498,0.417-.65527,0.79395-0.94336.50586-1.68555,0.88379-2.31641,1.18262-0.60742.30664-1.06445,0.53223-1.4541,0.74121-0.06055.03125-.28516,0.15234-0.53125,0.30371-0.26172.15918-.53906,0.32715-0.749,0.43945-0.13477.07227-.22559,0.082-0.26562,0.00684a0.115,0.115,0,0,1,.04883-0.16113,2.0531,2.0531,0,0,0,.37207-0.27637c0.22266-.19629.125-0.45215-0.0166-0.8584a29.33012,29.33012,0,0,0-1.40137-2.79785l-1.2041-2.24707c-1.05957-1.97852-1.252-2.33789-1.499-2.72656a0.65768,0.65768,0,0,0-.916-0.415,4.70453,4.70453,0,0,0-.46582.21094,0.14578,0.14578,0,0,1-.16113-0.04883c-0.04-.0752.00391-0.13672,0.15332-0.21484,0.59961-.32129,1.43945-0.73242,1.51464-0.77246,0.06055-.03223,1.03321-0.5918,1.4375-0.81152,0.13477-.07227.22559-0.082,0.26563-0.00684a0.12576,0.12576,0,0,1-.05664.14551c-0.08984.04883-.27637,0.168-0.418,0.2627-0.34961.28418-.32031,0.51855-0.10937,0.98438,0.20117,0.41309.39453,0.77246,1.4541,2.75Z" transform="translate(-0.00001 -0.25959)"/><path class="cls-1" d="M205.292,235.82031c2.78516-1.89062,6.05176-1.62109,7.94238,1.16406a5.79163,5.79163,0,0,1-1.65137,8.25391,5.54494,5.54494,0,0,1-8.03027-1.41309A5.72553,5.72553,0,0,1,205.292,235.82031Zm6.30859,8.68652c1.11133-.75488,2.94727-2.86426.59766-6.3252-1.94922-2.87012-4.71582-3.19043-6.6709-1.86328-2.06836,1.4043-2.68066,3.71094-.91406,6.31445C206.50488,245.418,209.36328,246.02539,211.60059,244.50684Z" transform="translate(-0.00001 -0.25959)"/><path class="cls-1" d="M219.90137,236.37109c0.8125,0.86914,1.15039,1.04688,1.52344.85352a3.5384,3.5384,0,0,0,.61719-0.43164,0.11646,0.11646,0,0,1,.168.01074c0.05566,0.06348.002,0.15625-.125,0.26953-0.6377.56152-1.11719,0.917-1.21875,1.00684-0.10254.09082-.54,0.54492-1.0498,0.99414-0.11426.10156-.18945,0.14551-0.25684,0.06836a0.11646,0.11646,0,0,1,.01074-0.168,2.3601,2.3601,0,0,0,.40234-0.46875c0.21289-.32324-0.00781-0.65039-0.873-1.63086l-5.47754-6.20508c-0.38184-.43359-0.41992-0.60449-0.33008-0.68262a1.3525,1.3525,0,0,1,.72559-0.05176c0.33594,0.02148,3.49609.31445,6.80273,0.56934,2.12109,0.168,4.4541.39746,5.11328,0.45117l-4.90527-5.32715c-0.63086-.68945-0.9082-0.875-1.30859-0.63477a4.65829,4.65829,0,0,0-.59277.43262,0.1191,0.1191,0,0,1-.17969-0.02344c-0.05566-.06348.02148-0.15527,0.14941-0.2627,0.50977-.4502,1.06738-0.89648,1.19434-1.00977,0.12793-.1123.47461-0.46387,0.93359-0.873,0.11426-.10156.21484-0.168,0.27148-0.10352a0.16937,0.16937,0,0,1-.03809.21387,1.74034,1.74034,0,0,0-.24512.26172c-0.30176.40234-.13574,0.6416,0.4375,1.292l5.5752,6.36719c0.62891,0.71387.67285,0.78809,0.59668,0.85547a2.74637,2.74637,0,0,1-1.43848.0918c-0.20508-.001-3.22852-0.166-5.50488-0.35547-2.502-.2168-4.93359-0.42773-5.61523-0.50684Zm-2.88477-12.43652c0.165,0.05762.13477,0.15234,0.084,0.19727a2.284,2.284,0,0,0-.38281.33789,10.8785,10.8785,0,0,0-1.46387,2.24414,1.04989,1.04989,0,0,1-.13477.23242,0.09573,0.09573,0,0,1-.13184-0.02051,0.17512,0.17512,0,0,1,0-.18066c0.17676-.72266.73242-2.48242,0.77637-2.6123a1.17683,1.17683,0,0,1,.21094-0.48047,0.25287,0.25287,0,0,1,.22852.002C216.4043,223.70313,216.65137,223.80273,217.0166,223.93457Z" transform="translate(-0.00001 -0.25959)"/><path class="cls-1" d="M231.49219,227.96094c-0.21289.082-.2627,0.05957-0.55078-0.2041-0.52734-.48047-0.90918-0.9209-1.07324-1.09375-0.11328-.10352-0.15332-0.18555-0.0957-0.248a0.13752,0.13752,0,0,1,.21777.01367,2.17,2.17,0,0,0,.42285.31738,2.201,2.201,0,0,0,2.64844-.78223,1.95046,1.95046,0,0,0,.09375-2.95312c-0.7666-.69922-1.50879-0.61621-3.13086-0.30176l-0.835.1582c-1.98047.37988-2.98926,0.17285-3.72949-.50293-1.25586-1.14648-1.10449-2.8252.22461-4.28223a7.22968,7.22968,0,0,1,1.16895-1.02832,1.94069,1.94069,0,0,0,.40527-0.34375c0.08008-.08789.11621-0.10156,0.17871-0.04395a15.0131,15.0131,0,0,0,1.084,1.08105c0.16309,0.14941.22754,0.23047,0.1582,0.30566-0.06836.07617-.12988,0.043-0.22949-0.02539a2.66559,2.66559,0,0,0-.67676-0.31738,2.17256,2.17256,0,0,0-1.833.9502,1.71919,1.71919,0,0,0-.18555,2.52344c0.67773,0.61816,1.377.63477,3.11426,0.21875l0.5-.11914c2.14355-.50781,3.30762-0.2959,4.22461.54a2.8178,2.8178,0,0,1,.88184,2.69141,4.59458,4.59458,0,0,1-1.22754,2.10254A5.51761,5.51761,0,0,1,231.49219,227.96094Z" transform="translate(-0.00001 -0.25959)"/><path class="cls-1" d="M233.85547,215.32129c-1.791-1.35352-2.11621-1.59961-2.50293-1.84961a0.65892,0.65892,0,0,0-1.00684.00684,4.60848,4.60848,0,0,0-.335.38672,0.145,0.145,0,0,1-.167.02246c-0.06738-.05078-0.05371-0.126.04883-0.26172,0.41016-.542.99121-1.25391,1.042-1.32227,0.082-.1084.59863-0.84766,0.86523-1.2002,0.10254-.13574.1709-0.16992,0.23828-0.11816a0.1265,0.1265,0,0,1,.02344.166,1.73241,1.73241,0,0,0-.19824.31934,0.66731,0.66731,0,0,0,.31934.90234c0.3457,0.30371.67188,0.5498,2.46191,1.90332l0.69238,0.52344,0.041-.05469c-0.07422-.35352-0.56641-4.07227-0.68945-4.86914a2.5663,2.5663,0,0,0-.335-1.27637,0.23723,0.23723,0,0,0-.34375-0.02539,0.15894,0.15894,0,0,1-.19043.02637c-0.05469-.041-0.04-0.11523.02148-0.19629,0.18457-.24414.48828-0.58984,0.70313-0.875,0.05176-.06836.61914-0.875,0.84473-1.17383,0.0918-.12207.16016-0.15625,0.21484-0.11523,0.05371,0.041.07422,0.09961,0.00293,0.19434a2.44909,2.44909,0,0,0-.33984.78711,5.24745,5.24745,0,0,0,.0332,1.98633c0.0459,0.50391.46094,4.01563,0.55078,4.48828,0.5752-.05566,4.93359-0.66113,5.751-0.81152a6.55727,6.55727,0,0,0,2.56738-.74512,3.219,3.219,0,0,0,.71582-0.60937,0.164,0.164,0,0,1,.208-0.07812c0.05371,0.041.05371,0.126-.09961,0.33008l-0.46191.61035a9.65639,9.65639,0,0,1-.65234.80664,3.17464,3.17464,0,0,1-1.80273.91895c-0.83105.22461-5.373,0.73438-6.48145,0.791l-0.041.05469,1.126,0.85059c1.1123,0.84082,2.02051,1.52832,2.53711,1.833a0.66771,0.66771,0,0,0,.959,0,4.47479,4.47479,0,0,0,.40234-0.41992,0.11579,0.11579,0,0,1,.167-0.02344c0.05371,0.041.05371,0.126-.04883,0.26172-0.44043.583-1.02441,1.27148-1.09668,1.36621-0.07227.0957-.57422,0.84473-0.85156,1.21094-0.0918.12207-.1709,0.16992-0.23828,0.11816a0.11573,0.11573,0,0,1-.02344-0.167,2.09972,2.09972,0,0,0,.22266-0.40723c0.12012-.27148-0.07617-0.46289-0.374-0.77344a29.61838,29.61838,0,0,0-2.44531-1.9541Z" transform="translate(-0.00001 -0.25959)"/><path class="cls-1" d="M243.877,205.48242c1.17871,0.74414,2.1416,1.35059,2.68066,1.61035a0.65521,0.65521,0,0,0,.93652-0.05176,6.07549,6.07549,0,0,0,.4209-0.53906,0.11556,0.11556,0,0,1,.16406-0.03711c0.05664,0.03613.06348,0.12109-.02637,0.2666-0.44434.7041-1.00391,1.49609-1.04,1.55371-0.0459.07129-.501,0.88867-0.74609,1.27637-0.08105.12891-.15527,0.18262-0.22754,0.1377a0.11574,0.11574,0,0,1-.03711-0.16406,2.17492,2.17492,0,0,0,.1875-0.42383,0.7106,0.7106,0,0,0-.43848-0.73926c-0.4668-.374-1.4209-0.99609-2.59961-1.73926l-2.15625-1.35937c-1.89648-1.19629-2.24219-1.41406-2.64844-1.62988a0.67067,0.67067,0,0,0-.915-0.01465,2.60612,2.60612,0,0,0-.28711.36133,0.1298,0.1298,0,0,1-.16406.03711c-0.07227-.0459-0.06445-0.12109.02637-0.26465,0.2627-.416.79-1.18848,0.835-1.26074,0.03613-.05664.52441-0.89453,0.76855-1.28418,0.09082-.14355.15625-0.18262,0.22754-0.1377a0.14444,0.14444,0,0,1,.03711.16406,1.70906,1.70906,0,0,0-.16992.335c-0.14648.38965-.01855,0.57031,0.39453,0.87109,0.37891,0.25879.72363,0.47656,2.62109,1.67285Z" transform="translate(-0.00001 -0.25959)"/><path class="cls-1" d="M244.66016,199.15625c-1.98047-1.05762-2.33984-1.249-2.76074-1.43555a0.6586,0.6586,0,0,0-.99316.16309,4.72185,4.72185,0,0,0-.27051.43457,0.14578,0.14578,0,0,1-.16113.04883c-0.0752-.04-0.07324-0.11621.00684-0.2666,0.32031-.59961.80762-1.43848,0.84766-1.51367,0.04785-.08984,1.53613-2.8418,1.68164-3.14941,0.12109-.26367.2041-0.52734,0.24609-0.64062a0.91535,0.91535,0,0,1,.03613-0.21191c0.02344-.04492.0918-0.02832,0.15137,0.00391,0.08984,0.04785.2002,0.20313,0.54395,0.42578,0.1123,0.0791.666,0.41309,0.7998,0.52344a0.18319,0.18319,0,0,1,.07129.19238c-0.04.07422-.11621,0.07227-0.2207,0.0166a1.58868,1.58868,0,0,0-.49023-0.165c-0.25879-.02246-0.4209.06445-0.89453,0.73633-0.15039.209-.98242,1.73047-1.0625,1.88086-0.03223.06055,0.00488,0.09863,0.09473,0.14746l3.46484,1.85059c0.08984,0.04785.13477,0.07129,0.1748-.00293,0.08789-.165,1.01758-1.90527,1.14746-2.22168a1.13542,1.13542,0,0,0,.165-0.74023,0.59793,0.59793,0,0,1-.06152-0.2832c0.02441-.04492.07031-0.05957,0.14551-0.01953a7.907,7.907,0,0,0,.64844.48145c0.23926,0.166.70313,0.45313,0.793,0.501,0.10547,0.05566.22461,0.1582,0.17578,0.248a0.11042,0.11042,0,0,1-.168.02637,1.27326,1.27326,0,0,0-.45117-0.165c-0.2041-.05078-0.41895-0.01074-0.751.4668-0.2373.33594-1.00488,1.73828-1.125,1.96289a0.0897,0.0897,0,0,0,.042.13867l1.06445,0.56836c0.43457,0.23242,1.91211,1.04,2.1748,1.16113,0.87109,0.42676,1.16406.27539,1.86133-1.0293a5.00309,5.00309,0,0,0,.57031-1.39258,1.102,1.102,0,0,0-.56543-1.0752c-0.13379-.11035-0.16211-0.16406-0.12207-0.23926s0.15234-.03418.24316,0.0166a12.29273,12.29273,0,0,1,1.13379.83691c0.28125,0.2666.209,0.40137-.0625,0.91113-0.5293.99023-.96777,1.73926-1.27148,2.27148-0.32617.53906-.51074,0.88379-0.61426,1.0791-0.0166.0293-.15234,0.28418-0.29,0.57715-0.12109.26367-.26562,0.57129-0.37793,0.78125-0.07227.13477-.14258,0.19434-0.21777,0.1543a0.11563,0.11563,0,0,1-.04883-0.16113,4.15144,4.15144,0,0,0,.15625-0.4375c0.0918-.27832-0.14746-0.44531-0.49023-0.70508a29.46321,29.46321,0,0,0-2.71973-1.54883Z" transform="translate(-0.00001 -0.25959)"/><path class="cls-1" d="M254.91895,184.28711c-1.08789-.43945-1.25781-0.47168-1.59766.05078a4.68679,4.68679,0,0,0-.22266.46,0.14378,0.14378,0,0,1-.15527.06543c-0.09473-.03809-0.085-0.10742-0.02148-0.26562,0.25586-.63086.66309-1.54883,0.69531-1.627,0.02539-.06348.34473-0.94336,0.5166-1.36719,0.06445-.15723.10547-0.21387,0.2002-0.17578a0.14323,0.14323,0,0,1,.06543.1543,1.68392,1.68392,0,0,0-.1084.36035,0.66653,0.66653,0,0,0,.53027.81934c0.41895,0.18848.81348,0.34766,1.38086,0.57715l1.49707,0.60645c0.61426,0.248.624,0.27051,0.64844,0.48242a8.44217,8.44217,0,0,1-3.87793,7.18066,5.53608,5.53608,0,0,1-4.48437.11133,5.408,5.408,0,0,1-3.46-4.09668,7.51815,7.51815,0,0,1,.6416-4.0332,12.44361,12.44361,0,0,1,1.082-2.03809,6.55666,6.55666,0,0,0,.59473-1.06152c0.05664-.14258.13281-0.14844,0.19629-0.123,0.18848,0.07715.51953,0.30273,1.85938,0.84473,0.2207,0.08887.25781,0.17773,0.21973,0.27246-0.03223.07813-.11719,0.0625-0.24316,0.01172a2.13745,2.13745,0,0,0-1.01074-.042c-0.64453.14258-1.60742,0.98145-2.335,2.77832a4.75569,4.75569,0,0,0-.30664,3.251,4.49909,4.49909,0,0,0,2.81836,2.73633,5.754,5.754,0,0,0,4.29785.0332,5.3432,5.3432,0,0,0,2.83789-2.97852,3.75973,3.75973,0,0,0,.35352-1.59961,0.43207,0.43207,0,0,0-.29492-0.4502Z" transform="translate(-0.00001 -0.25959)"/><path class="cls-1" d="M251.31348,170.94434c0.85742-3.25391,3.49609-5.19434,6.75-4.33594a5.78753,5.78753,0,0,1,4.17285,7.30469,5.54064,5.54064,0,0,1-6.97949,4.20508A5.721,5.721,0,0,1,251.31348,170.94434Zm10.45605,2.40625c0.34277-1.29883.34082-4.09375-3.70117-5.15918-3.35254-.88477-5.64844.68945-6.251,2.97363-0.63672,2.416.416,4.55664,3.45605,5.3584C258.52734,177.38184,261.08105,175.96289,261.76953,173.35059Z" transform="translate(-0.00001 -0.25959)"/><path class="cls-1" d="M23.08984,115.35645c-2.6377-.6665-3.11084-0.78613-3.66064-0.8877a0.86528,0.86528,0,0,0-1.15674.51953,3.56251,3.56251,0,0,0-.20312.59082,0.12714,0.12714,0,0,1-.1377.11621c-0.10107-.02588-0.11279-0.123-0.06348-0.31885,0.20215-.79834.51758-1.833,0.54443-1.93945,0.04053-.15967.25-1.20215,0.38428-1.7334,0.04932-.19482.10547-0.27539,0.207-0.24951a0.12642,0.12642,0,0,1,.06543.16748,2.8718,2.8718,0,0,0-.061.45654,0.83663,0.83663,0,0,0,.79736.8999c0.53223,0.17236,1.00586.292,3.64307,0.9585l1.01416,0.25635,0.01807-.0708c-0.24463-.38281-2.54346-4.38135-3.0415-5.18652a3.01077,3.01077,0,0,0-.9751-1.26611,0.34275,0.34275,0,0,0-.41357.14111,0.193,0.193,0,0,1-.17529.12549c-0.08447-.02148-0.09619-0.11865-0.06445-0.24512,0.08936-.355.2793-0.89258,0.38721-1.31885,0.022-.08838.26758-1.27295,0.37988-1.71338,0.04932-.19531.10107-0.25781,0.18555-0.23633s0.10938,0.06543.07324,0.20752a2.82372,2.82372,0,0,0-.01416,1.05322,6.7627,6.7627,0,0,0,.96924,2.28418c0.29346,0.54639,2.38721,4.36035,2.71582,4.83984,0.60693-.3374,5.1748-3.11035,6.00146-3.67529,1.69531-1.15771,2.042-1.39062,2.5957-2.15723a3.52754,3.52754,0,0,0,.49756-1.04443c0.03174-.12451.09229-0.22217,0.16016-0.20508,0.08447,0.021.11279,0.12256,0.03662,0.42432l-0.229.90527c-0.12549.49658-.21094,0.834-0.34326,1.21582a3.86384,3.86384,0,0,1-1.57422,1.88672c-0.82764.64014-5.6499,3.42432-6.86279,4.02393l-0.02246.08887,1.65674,0.41846c1.623,0.41016,2.9585.74756,3.69141,0.83838a0.84785,0.84785,0,0,0,1.10449-.457,6.59953,6.59953,0,0,0,.24268-0.6748c0.02686-.10693.08643-0.12939,0.13721-0.1167,0.08447,0.02148.11279,0.123,0.06348,0.31689-0.21973.86963-.53076,1.88623-0.56641,2.02832-0.03613.14209-.24561,1.18457-0.37988,1.71729-0.04932.19531-.106,0.27539-0.207,0.25-0.05078-.0127-0.09277-0.061-0.06592-0.16748a2.97508,2.97508,0,0,0,.06738-0.5498,0.92613,0.92613,0,0,0-.7998-0.74951c-0.688-.26807-2.02344-0.60547-3.64648-1.01562Z" transform="translate(-0.00001 -0.25959)"/><path class="cls-1" d="M25.46631,96.40869c1.31738-3.37793,4.28174-5.17041,7.499-3.917a6.09359,6.09359,0,0,1,3.29053,8.21973c-1.603,4.11084-5.23,4.72217-7.71631,3.75293A6.02009,6.02009,0,0,1,25.46631,96.40869Zm10.38721,3.6543c0.52539-1.34766.90088-4.32617-3.09668-5.88379-3.31543-1.292-5.87891.146-6.80371,2.51709-0.978,2.50781-.188,4.89893,2.81836,6.07031C31.98877,104.02051,34.7959,102.77539,35.85352,100.063Z" transform="translate(-0.00001 -0.25959)"/><path class="cls-1" d="M36.74316,88.6792c1.769,0.90625,2.73242,1.3584,3.12256,1.2085a3.41684,3.41684,0,0,0,1.27-1.71484,2.47683,2.47683,0,0,0,.51123-1.87793,2.02271,2.02271,0,0,0-.59961-0.78027,0.1803,0.1803,0,0,1-.10352-0.21777c0.0332-.06494.12012-0.082,0.25977-0.01074a8.99721,8.99721,0,0,1,1.21094.8877c0.26025,0.25684.28174,0.32959-.11084,1.0957-0.52588,1.02637-.9502,1.81689-1.30664,2.43652-0.34131.62793-.60693,1.10889-0.82422,1.53271-0.0332.06494-.1582,0.30957-0.30127,0.627-0.15039.29346-.27783,0.61865-0.395,0.84717-0.07471.14648-.14746,0.21191-0.2251,0.17236a0.10881,0.10881,0,0,1-.03467-0.16162,2.42877,2.42877,0,0,0,.16309-0.47217,0.77153,0.77153,0,0,0-.522-0.74023,28.783,28.783,0,0,0-2.81348-1.54443l-0.71387-.36572L35.3252,91.1416a0.14273,0.14273,0,0,1-.11328.10645l-0.45605-.02783a0.09953,0.09953,0,0,1-.1001-0.07227L34.72559,89.291l-1.00879-.5166c-2.04834-1.04932-2.4209-1.24023-2.85645-1.42236a0.68375,0.68375,0,0,0-1.03027.21338,5.49276,5.49276,0,0,0-.28125.47266,0.152,0.152,0,0,1-.167.05859c-0.07764-.03955-0.0752-0.12061.0083-0.28418,0.334-.65186.84082-1.56494,0.88232-1.64648,0.0332-.06543.53662-1.12451,0.76172-1.56348,0.0752-.147.14795-0.2124,0.22559-0.17236a0.15193,0.15193,0,0,1,.05029.16943c-0.05029.09766-.14307,0.31787-0.21094,0.48877a0.677,0.677,0,0,0,.45361.91113c0.41064,0.231.7832,0.42188,2.83154,1.47119l0.49658,0.25439,0.09082-2.58691a0.096,0.096,0,0,1,.105-0.08984l0.48,0.019c0.07861-.00049.09277,0.04785,0.09033,0.12891L35.50146,88.043Z" transform="translate(-0.00001 -0.25959)"/><path class="cls-1" d="M37.05176,73.85742c1.97607-3.03955,5.2417-4.19336,8.13623-2.31445,2.77734,1.80322,3.665,5.458,1.5498,8.7124-2.40527,3.69922-6.07861,3.5625-8.31543,2.11035A6.01636,6.01636,0,0,1,37.05176,73.85742Zm9.42383,5.68164c0.78809-1.2124,1.76123-4.05176-1.835-6.38672-2.98193-1.936-5.78369-1.04834-7.1709,1.08545-1.4668,2.25684-1.17969,4.75684,1.52441,6.5127C41.88867,82.62988,44.88867,81.98,46.47559,79.53906Z" transform="translate(-0.00001 -0.25959)"/><path class="cls-1" d="M58.957,63.92578c-0.26709.0957-.32959,0.05957-0.66357-0.272-0.61865-.61426-1.062-1.15771-1.24707-1.36719-0.12354-.14795-0.15967-0.23535-0.09473-0.30029,0.07715-.07812.12744-0.0542,0.22607,0.04443a2.92932,2.92932,0,0,0,.49658.415,2.48924,2.48924,0,0,0,3.17285-.66846,2.38995,2.38995,0,0,0,.2002-3.49072c-0.854-.84766-1.72314-0.9624-3.71191-0.71777l-1.03857.12988c-2.44531.30762-3.52246-.14209-4.36377-0.97754-1.32422-1.314-1.19482-3.24951.44482-4.89893a7.42193,7.42193,0,0,1,1.32422-1.08447,3.17292,3.17292,0,0,0,.51367-0.39307c0.103-.104.15381-0.10547,0.21582-0.04395,0.06152,0.061.41846,0.51855,1.25977,1.354,0.19824,0.19629.25879,0.30811,0.19434,0.373-0.07715.07813-.15234,0.02979-0.26416-0.05566a2.94227,2.94227,0,0,0-.78662-0.44531c-0.21338-.05713-1.08154-0.22266-2.26953.97217a2.0387,2.0387,0,0,0-.15234,3.022c0.70557,0.7002,1.48682.80469,3.6543,0.47949l0.6333-.09326c2.67432-.39014,3.80322.00781,4.793,0.99072a3.55,3.55,0,0,1,.957,3.14258A4.995,4.995,0,0,1,61.021,62.51709,5.79415,5.79415,0,0,1,58.957,63.92578Z" transform="translate(-0.00001 -0.25959)"/><path class="cls-1" d="M66.895,50.9541c0.917,1.09717,1.6665,1.99414,2.11426,2.41553a0.69135,0.69135,0,0,0,.98047.20264,6.50223,6.50223,0,0,0,.60645-0.4165,0.11105,0.11105,0,0,1,.17627.01123c0.04492,0.05371.02246,0.14063-.11816,0.2583-0.67383.564-1.49365,1.18164-1.56348,1.24072-0.05615.04688-.87891,0.80371-1.24414,1.10938-0.14014.11719-.21875,0.1377-0.2749,0.0708a0.10968,0.10968,0,0,1,.03125-0.1626,2.25414,2.25414,0,0,0,.32031-0.35889,0.75552,0.75552,0,0,0-.14941-0.92139c-0.33545-.51514-1.085-1.41162-2.002-2.50928L61.7793,47.1167l-1.76074,1.519c-0.76074.65967-.98828,0.98682-0.94727,1.40674a2.363,2.363,0,0,0,.10547.52588,0.15208,0.15208,0,0,1-.03711.21289,0.11792,0.11792,0,0,1-.16211-0.02295c-0.10107-.12061-0.69824-1.34912-0.7627-1.45459a0.57709,0.57709,0,0,1-.05225-0.31982,5.83683,5.83683,0,0,0,.65918-0.32422c0.38428-.25391.873-0.63965,1.01318-0.75732l4.66064-3.90088a8.46474,8.46474,0,0,0,.83984-0.79346c0.16016-.17969.25-0.30029,0.30615-0.34766,0.05615-.04687.1123,0.02,0.168,0.08691,0.291,0.34814.93115,1.19971,1.043,1.3335a0.16912,0.16912,0,0,1,.01074.24121c-0.05615.04688-.11768,0.03027-0.26611-0.11865l-0.11475-.1084c-0.333-.313-0.812-0.34375-2.01367.61621l-1.56641,1.26563Z" transform="translate(-0.00001 -0.25959)"/><path class="cls-1" d="M70.88184,44.43994c-1.2832-1.91162-1.5166-2.25928-1.80908-2.62988a0.6993,0.6993,0,0,0-1.00439-.313c-0.11572.05713-.35352,0.1958-0.4751,0.27734a0.15146,0.15146,0,0,1-.17432-0.02979c-0.04883-.07227-0.00732-0.14209.14453-0.24316,0.60791-.4082,1.43262-0.92041,1.55469-1.002,0.12109-.08154.938-0.67187,1.333-0.939,0.15186-.10205.24756-0.124,0.2959-0.05176a0.15425,0.15425,0,0,1-.05371.18311,1.98059,1.98059,0,0,0-.31445.25391c-0.311.29248-.24121,0.56055,0.00049,0.98682,0.23242,0.41113.46533,0.75879,1.74854,2.66992l1.15674,1.72363c1.19531,1.78076,2.10156,2.24365,3.00928,2.34814a3.23389,3.23389,0,0,0,2.438-.6709,3.38145,3.38145,0,0,0,1.48389-2.25732,5.26947,5.26947,0,0,0-1.24219-3.49365l-1.04-1.54932c-1.2832-1.91113-1.53174-2.24854-1.80908-2.62939a0.67606,0.67606,0,0,0-.98877-0.32324,5.373,5.373,0,0,0-.47559.27734,0.13453,0.13453,0,0,1-.17432-0.03027c-0.04883-.07227-0.00732-0.14209.14453-0.24268,0.59277-.39795,1.38721-0.88965,1.46338-0.94092,0.09131-.061.71-0.519,1.105-0.78564,0.15234-.10205.23242-0.11377,0.28076-0.0415a0.1344,0.1344,0,0,1-.03809.17285,1.96965,1.96965,0,0,0-.31494.25342,0.69529,0.69529,0,0,0-.01416.99707c0.23193,0.41162.48047,0.74854,1.76318,2.66016l0.88477,1.31787c0.894,1.332,1.71289,2.94629,1.23242,4.5293a5.03808,5.03808,0,0,1-2.19385,2.77637,5.20173,5.20173,0,0,1-3.36426.999c-1.04248-.14014-2.13281-0.64746-3.33789-2.44287Z" transform="translate(-0.00001 -0.25959)"/><path class="cls-1" d="M83.27734,36.51855c-1.041-2.05225-1.23047-2.42529-1.47607-2.82861a0.683,0.683,0,0,0-.9585-0.43262,5.40919,5.40919,0,0,0-.50586.21777,0.15257,0.15257,0,0,1-.16943-0.05127c-0.03955-.07764.01025-0.1416,0.17334-0.228,0.65332-.33154,1.59961-0.77295,1.68115-0.814,0.16309-.083,1.062-0.57813,1.91064-1.00537,1.437-.729,4.00244-2.1875,6.52881-1.4165a5.08163,5.08163,0,0,1,3.10791,2.646,5.79249,5.79249,0,0,1,.33447,4.50293,6.64232,6.64232,0,0,1-3.58594,3.73633c-0.62061.31445-1.41162,0.65723-2.04785,0.94141-0.644.26807-1.1499,0.48535-1.21484,0.51855-0.03271.0166-.28613,0.16455-0.58008,0.314-0.28613.16455-.62109,0.354-0.84961,0.47021-0.147.07471-.24414,0.085-0.28369,0.00732a0.12154,0.12154,0,0,1,.05908-0.167,2.39136,2.39136,0,0,0,.40918-0.28613c0.24609-.20312.15234-0.46826,0.02051-0.89014a28.87359,28.87359,0,0,0-1.36963-2.90234Zm2.03223,0.76807c0.71,1.39893,1.333,2.62744,1.47559,2.86816a2.67816,2.67816,0,0,0,.64453.86523c0.30566,0.15771.9541,0.18066,2.65186-.68066a5.55807,5.55807,0,0,0,2.75586-2.9043,4.84416,4.84416,0,0,0-.4668-3.7124,5.01423,5.01423,0,0,0-3.03564-2.624c-2.01758-.61865-3.688.01416-5.40234,0.88428a4.49435,4.49435,0,0,0-.81836.53223,0.26117,0.26117,0,0,0-.04541.35547Z" transform="translate(-0.00001 -0.25959)"/><path class="cls-1" d="M96.85791,30.10791c-0.81982-2.15137-.96875-2.54248-1.1709-2.96924a0.68327,0.68327,0,0,0-.90771-0.53125c-0.126.0293-.38867,0.11084-0.52539,0.1626a0.15187,0.15187,0,0,1-.16309-0.06836c-0.03125-.08154.0249-0.14014,0.1958-0.20508,0.68408-.26074,1.67139-0.59961,1.75732-0.63232,0.10254-.03906,3.25586-1.22168,3.5918-1.36816,0.28467-.127.53955-0.28027,0.65332-0.3418a1.04717,1.04717,0,0,1,.18018-0.14355c0.05127-.01953.09326,0.03906,0.11816,0.10449,0.03711,0.09766.01416,0.293,0.12891,0.69727,0.03223,0.13672.23438,0.769,0.26221,0.94531a0.19125,0.19125,0,0,1-.08105.19873c-0.08545.03271-.14453-0.01953-0.188-0.13379a1.55491,1.55491,0,0,0-.272-0.45605c-0.18945-.18945-0.38086-0.22852-1.23926-0.01367-0.26855.06543-2.01953,0.71387-2.19092,0.77881-0.06836.02588-.06689,0.08154-0.0293,0.1792l1.43457,3.76465c0.03711,0.09766.05566,0.14648,0.14111,0.11377,0.18848-.07129,2.17236-0.82715,2.502-0.99023a1.26722,1.26722,0,0,0,.66113-0.47559,0.6251,0.6251,0,0,1,.1543-0.26416c0.05127-.01953.09766,0,0.12891,0.08154a7.74865,7.74865,0,0,0,.17188.81152c0.07178,0.29.23633,0.82471,0.27344,0.92236a0.241,0.241,0,0,1-.0376.313,0.11481,0.11481,0,0,1-.15234-0.09131,1.2608,1.2608,0,0,0-.24219-0.43018c-0.126-.17627-0.32471-0.28711-0.93115-0.13037-0.4292.10742-2.04346,0.70361-2.2998,0.80127a0.09386,0.09386,0,0,0-.06543.13672l0.44092,1.15723c0.18018,0.47266.77783,2.09229,0.90039,2.36279,0.38818,0.916.73047,0.99072,2.21826,0.42383a5.61247,5.61247,0,0,0,1.44971-.71973,1.12986,1.12986,0,0,0,.31787-1.22217c-0.02832-.17627-0.0127-0.23779.07324-0.27051,0.08545-.03271.146,0.07471,0.18311,0.17285a11.774,11.774,0,0,1,.3042,1.41455c0.03369,0.39746-.12012.45605-0.70166,0.67773-1.12891.42969-2.01367,0.72949-2.63574,0.94775-0.64551.2085-1.03857,0.3584-1.26123,0.44336-0.03418.0127-.32471,0.12354-0.64355,0.26367-0.28467.127-.62061,0.27393-0.86035,0.36475-0.15381.05859-.25146,0.05859-0.28271-0.02246a0.12157,0.12157,0,0,1,.07617-0.16016,4.71668,4.71668,0,0,0,.437-0.24072c0.27246-.15967.20068-0.44971,0.11426-0.8833a28.86849,28.86849,0,0,0-1.05762-3.03125Z" transform="translate(-0.00001 -0.25959)"/><path class="cls-1" d="M108.667,31.10791c0.3418,1.17236.5752,1.48975,1.02686,1.48047a4.04012,4.04012,0,0,0,.80127-0.11816,0.122,0.122,0,0,1,.15479.08594c0.022,0.084-.07568.14551-0.25293,0.19141-0.88574.23047-1.519,0.34131-1.66064,0.37793-0.1416.03711-.78418,0.2583-1.49268,0.44238-0.15918.0415-.25244,0.04785-0.27832-0.05322a0.122,0.122,0,0,1,.09326-0.15039,2.67708,2.67708,0,0,0,.61572-0.25049c0.36328-.20264.31592-0.60449-0.02148-1.9043l-2.13232-8.21875c-0.14893-.57373-0.1001-0.74854.02393-0.78076a1.45492,1.45492,0,0,1,.71631.28223c0.30957,0.17188,3.17236,1.877,6.19482,3.61279,1.93555,1.11816,4.043,2.38965,4.644,2.7373l-2.0249-7.14746c-0.25879-.92383-0.43066-1.22119-0.93066-1.18115a5.38954,5.38954,0,0,0-.7793.13037,0.123,0.123,0,0,1-.15918-0.10254c-0.022-.08447.09766-0.13379,0.2749-0.17627,0.7085-.18408,1.46143-0.34424,1.63867-0.39014s0.68213-.21338,1.31982-0.38281c0.15967-.0415.2876-0.05664,0.30957,0.02734a0.179,0.179,0,0,1-.14209.18115,1.914,1.914,0,0,0-.36328.13086c-0.4873.23486-.44824,0.53076-0.2251,1.3916l2.14551,8.41357c0.24512,0.94482.24951,1.03418,0.14307,1.06152a2.95605,2.95605,0,0,1-1.41455-.56885c-0.19434-.09326-2.9917-1.61768-5.064-2.82617-2.27539-1.33545-4.48486-2.63477-5.09473-3.0166Z" transform="translate(-0.00001 -0.25959)"/><path class="cls-1" d="M125.90771,25.14551c0.2002,1.41553.36377,2.57178,0.522,3.16553a0.69205,0.69205,0,0,0,.72607.68945,6.53522,6.53522,0,0,0,.73486-0.03369,0.11124,0.11124,0,0,1,.144.103c0.00977,0.06885-.05518.13086-0.23682,0.15625-0.87012.123-1.89258,0.21484-1.98291,0.228-0.07275.01025-1.17139,0.21826-1.64258,0.28516-0.18115.02539-.2583,0.001-0.271-0.085a0.10988,0.10988,0,0,1,.1123-0.12158,2.23694,2.23694,0,0,0,.46191-0.13574,0.75414,0.75414,0,0,0,.35889-0.86035c-0.01318-.61426-0.17676-1.77051-0.377-3.186l-0.87158-6.16064-2.29687.35986c-0.99463.1582-1.36084,0.31592-1.54785,0.69434a2.35,2.35,0,0,0-.1875.50146,0.15221,0.15221,0,0,1-.14355.16113,0.11814,0.11814,0,0,1-.126-0.10547c-0.022-.15527.11865-1.5127,0.11963-1.63623a0.58218,0.58218,0,0,1,.124-0.29932,5.76806,5.76806,0,0,0,.73145.07275c0.46045-.01221,1.07959-0.082,1.26074-0.10791l6.01807-.85107a8.40121,8.40121,0,0,0,1.13232-.23047c0.231-.06787.37109-0.123,0.44336-0.1333,0.07275-.01025.085,0.07617,0.09717,0.1626,0.06348,0.44873.15771,1.50928,0.18213,1.68164a0.16879,0.16879,0,0,1-.11816.21045c-0.07227.01025-.11572-0.03662-0.16357-0.24121l-0.04-.15234c-0.11768-.44141-0.5083-0.72021-2.03613-0.53955l-1.999.24756Z" transform="translate(-0.00001 -0.25959)"/><path class="cls-1" d="M137.53857,17.0459c3.62256-.12109,6.437,1.896,6.55225,5.34619a6.09509,6.09509,0,0,1-6.25732,6.26221c-4.40918.147-6.39893-2.94434-6.4873-5.61035A6.02053,6.02053,0,0,1,137.53857,17.0459Zm0.73193,10.9834c1.44531-.04834,4.33008-0.87744,4.187-5.16406-0.11816-3.55469-2.44873-5.34375-4.9917-5.25879-2.68945.08984-4.57568,1.75732-4.46826,4.98145C133.1123,26.03809,135.36133,28.126,138.27051,28.0293Zm1.99658-13.20264c0.09668,0.15381.00684,0.209-.06641,0.21143a2.5605,2.5605,0,0,0-.54883.01807,12.19265,12.19265,0,0,0-2.75635.82471,1.14687,1.14687,0,0,1-.27148.09619,0.09984,0.09984,0,0,1-.09521-0.10107,0.18223,0.18223,0,0,1,.12354-0.144c0.644-.45752,2.313-1.49023,2.439-1.564a1.30137,1.30137,0,0,1,.50488-0.24365,0.266,0.266,0,0,1,.188.15088C139.918,14.24512,140.0542,14.48486,140.26709,14.82666Z" transform="translate(-0.00001 -0.25959)"/><path class="cls-1" d="M157.84863,27.252l0.07324,0.00732c0.52734-1.17139,2.41211-5.28467,3.1748-7.11523a2.99548,2.99548,0,0,0,.27832-0.89941c0.02734-.25977-0.082-0.44678-0.81055-0.52295a0.15239,0.15239,0,0,1-.13086-0.15381c0.00684-.06934.084-0.09668,0.28418-0.08008,0.81836,0.08594,1.48828.19092,1.63379,0.20605,0.10938,0.01172.80469,0.04932,1.29688,0.10547,0.14551,0.01514.21484,0.05762,0.209,0.10986a0.1433,0.1433,0,0,1-.16211.14063,2.7353,2.7353,0,0,0-.55273.01221,2.36656,2.36656,0,0,0-1.20117,1.45117c-0.90625,1.79785-2.98047,6.312-3.79,7.89209-0.5332,1.04785-.64258,1.21191-0.82422,1.19287a0.93293,0.93293,0,0,1-.44824-0.81836l-2.28613-8.38818c-0.68066,1.22559-3.41211,6.38916-4.1377,7.69775-0.33887.59521-.46387,0.73975-0.64648,0.7207-0.16309-.01709-0.27441-0.18652-0.49707-1.22607l-1.9248-9.03369a1.29566,1.29566,0,0,0-.7207-1.19727,3.193,3.193,0,0,0-.71875-0.16309,0.14152,0.14152,0,0,1-.13184-0.15381c0.00781-.06934.12012-0.09277,0.2666-0.082,0.83691,0.08789,1.72559.21582,1.88867,0.2334,0.14648,0.01514.87793,0.05664,1.67871,0.145,0.21875,0.02295.28808,0.06543,0.28027,0.13477a0.15776,0.15776,0,0,1-.17773.12158,1.41726,1.41726,0,0,0-.57422.02734,0.30319,0.30319,0,0,0-.251.28906,8.399,8.399,0,0,0,.166,1.40186c0.15723,0.96289,1.22852,6.54248,1.36523,7.17041l0.03711,0.00391,4.21191-7.88281c0.29785-.56445.416-0.63965,0.50781-0.63037a1.016,1.016,0,0,1,.36426.73926Z" transform="translate(-0.00001 -0.25959)"/><path class="cls-1" d="M179.09766,29.35791c-0.51758,1.59229-.94238,2.90234-1.082,3.62744a0.8485,0.8485,0,0,0,.38281,1.13281c0.2334,0.1123.60547,0.27,0.76172,0.32129,0.10449,0.03369.123,0.09473,0.10742,0.14453-0.02734.083-.12988,0.10449-0.32227,0.04248-0.957-.31152-2.03809-0.71777-2.125-0.74609s-1.2002-.33545-1.72266-0.50537c-0.19141-.062-0.26758-0.12354-0.23535-0.22314,0.0166-.0498.06738-0.08838,0.17188-0.0542a2.95785,2.95785,0,0,0,.54395.10352,0.9245,0.9245,0,0,0,.80078-0.748c0.31348-.66846.73926-1.97852,1.25586-3.5708l0.94824-2.91943c0.84082-2.5874.99121-3.05176,1.12891-3.59375a0.86737,0.86737,0,0,0-.29-1.12158,2.52938,2.52938,0,0,0-.51855-0.2417,0.12763,0.12763,0,0,1-.10742-0.145c0.0332-.09912.13086-0.104,0.32227-0.03955,0.57422,0.187,1.65527.59326,1.74219,0.62158s1.2002,0.33545,1.72266.50244c0.19141,0.0625.26758,0.124,0.23535,0.22363a0.12772,0.12772,0,0,1-.17187.0542,2.79384,2.79384,0,0,0-.45117-0.0918,0.8362,0.8362,0,0,0-.95117.73584c-0.207.51953-.3584,0.98389-1.19824,3.57129Z" transform="translate(-0.00001 -0.25959)"/><path class="cls-1" d="M184.44434,34.46338c-0.459,1.13232-.47266,1.52637-0.1123,1.79932a3.98791,3.98791,0,0,0,.70117.40479,0.12223,0.12223,0,0,1,.06836.16357c-0.03516.07959-.14941,0.06738-0.31738-0.00635-0.83789-.36963-1.40332-0.67578-1.53711-0.73486s-0.77441-.28467-1.44531-0.58008c-0.15039-.06641-0.22754-0.11914-0.18457-0.21484a0.12112,0.12112,0,0,1,.166-0.06006,2.65433,2.65433,0,0,0,.63867.186c0.41016,0.06689.623-.27832,1.16406-1.50732l3.42578-7.77295c0.23926-.54248.38672-0.64893,0.50391-0.59766a1.46454,1.46454,0,0,1,.38672.6665c0.13574,0.32666,1.32324,3.44238,2.61719,6.68164,0.8252,2.07861,1.68945,4.38525,1.94434,5.03125l2.8457-6.86572c0.37012-.88525.4209-1.2251,0.00292-1.50439a5.30384,5.30384,0,0,0-.69238-0.38135,0.12321,0.12321,0,0,1-.06055-0.17969c0.03516-.07959.15918-0.04395,0.32715,0.02783,0.66992,0.29541,1.35938.6377,1.52734,0.71143,0.167,0.07373.667,0.25586,1.27051,0.52393,0.15039,0.06641.26074,0.13428,0.22559,0.21387a0.17871,0.17871,0,0,1-.22363.05371,1.95039,1.95039,0,0,0-.36621-0.123c-0.52734-.11816-0.68066.13818-1.04,0.95215l-3.53613,7.93359c-0.39355.894-.44629,0.96631-0.54687,0.92188a2.96338,2.96338,0,0,1-.75586-1.32471c-0.09473-.19385-1.34375-3.127-2.21875-5.36182-0.957-2.46143-1.88379-4.85254-2.125-5.53076Z" transform="translate(-0.00001 -0.25959)"/><path class="cls-1" d="M199.6123,36.2749c1.14355-1.998,1.35156-2.36133,1.55469-2.78809a0.6843,0.6843,0,0,0-.165-1.03906,5.49858,5.49858,0,0,0-.459-0.30322,0.15229,0.15229,0,0,1-.05078-0.16943c0.043-.07568.124-0.06934,0.2832,0.02148,0.63574,0.36377,1.49121.894,1.57129,0.93945,0.26953,0.15479,3.29492,1.90674,3.62109,2.07373a3.55072,3.55072,0,0,0,.66992.30322c0.08887,0.03027.18652,0.00586,0.23438,0.0332a0.12385,0.12385,0,0,1,.02637.17578c-0.05273.09082-.20215,0.20605-0.458,0.542-0.085.11182-.43066,0.67773-0.54883,0.811a0.19124,0.19124,0,0,1-.20508.06348,0.14911,0.14911,0,0,1-.02441-0.21484,1.55757,1.55757,0,0,0,.14941-0.55713,1.233,1.233,0,0,0-.73633-0.92432l-2.26953-1.33984c-0.0791-.04541-0.12891-0.0332-0.18945.07275l-2.01074,3.51172c-0.043.07568-.06934,0.12109,0.02637,0.17578l1.915,1.07617c0.23828,0.13623.44434,0.25439,0.64355,0.34863a1.01484,1.01484,0,0,0,.78125.14551,0.37554,0.37554,0,0,1,.25293-0.03613c0.06348,0.03662.05371,0.09082,0.01855,0.15137a5.93058,5.93058,0,0,0-.53418.63867c-0.17969.23926-.49023,0.74463-0.542,0.83545-0.06934.12109-.17871,0.23926-0.27441,0.18457a0.11235,0.11235,0,0,1-.02539-0.17529,2.06326,2.06326,0,0,0,.17285-0.52393,0.92938,0.92938,0,0,0-.48047-0.81787c-0.32324-.24561-1.98437-1.17627-2.22266-1.3125-0.0791-.0459-0.1123-0.02441-0.165.06641l-0.58887,1.0293c-0.72852,1.27148-1.30859,2.28564-1.53125,2.82129a0.70423,0.70423,0,0,0,.11816.97217,6.83374,6.83374,0,0,0,.60059.42432,0.12083,0.12083,0,0,1,.05078.16992c-0.03516.06055-.124,0.06934-0.2832-0.02148-0.77832-.4458-1.65723-1.00928-1.7207-1.0459-0.08008-.04541-0.97949-0.5-1.4082-0.74561-0.14355-.082-0.20508-0.15771-0.16211-0.2334a0.12143,0.12143,0,0,1,.17188-0.04248,4.68207,4.68207,0,0,0,.46387.18506c0.2959,0.10938.47461-.12988,0.75488-0.47168a28.87678,28.87678,0,0,0,1.6748-2.73975Z" transform="translate(-0.00001 -0.25959)"/><path class="cls-1" d="M214.68555,40.52295c2.93945,2.12109,3.93066,5.4375,1.91016,8.23535a6.09812,6.09812,0,0,1-8.78321,1.12158c-3.57812-2.58154-3.25976-6.24219-1.69824-8.40381A6.02574,6.02574,0,0,1,214.68555,40.52295ZM208.541,49.65332c1.17285,0.84619,3.96191,1.95605,6.47266-1.52,2.083-2.88232,1.334-5.72266-.72949-7.21143-2.18262-1.57471-4.69531-1.41016-6.584,1.20361C205.67871,44.92334,206.17969,47.9502,208.541,49.65332Z" transform="translate(-0.00001 -0.25959)"/><path class="cls-1" d="M220.07031,50.43115c1.54688-1.7041,1.82813-2.01416,2.11718-2.38721a0.6826,0.6826,0,0,0,.06251-1.04932,5.431,5.431,0,0,0-.38281-0.395,0.151,0.151,0,0,1-.0127-0.17627c0.05859-.06445.13574-0.041,0.27148,0.08105,0.542,0.49219,1.31836,1.24316,1.38574,1.30469,0.12207,0.11084,1.14844.99512,1.51367,1.32813a5.4769,5.4769,0,0,1,1.78906,2.49463,2.57342,2.57342,0,0,1-.5332,2.24756c-0.73828.813-1.80469,1.28076-3.73633,1.17578-0.0791,2.04736-.15527,3.792-0.085,5.103a3.12752,3.12752,0,0,0,1.02148,2.38721,0.13926,0.13926,0,0,1,.02637.18848c-0.05859.06445-.15039,0.02881-0.36719-0.168l-0.74512-.67627a3.38559,3.38559,0,0,1-1.07422-1.37549,8.03779,8.03779,0,0,1-.16113-3.08936c0.03809-1.04883.1543-2.23877,0.166-2.769a0.252,0.252,0,0,0-.10449-0.2124L219.72754,53.04a0.10061,0.10061,0,0,0-.16309.0166l-0.23437.2583c-0.96094,1.05859-1.73437,1.91064-2.08984,2.41162a0.705,0.705,0,0,0-.05371,1.01123,6.232,6.232,0,0,0,.48145.53125,0.11126,0.11126,0,0,1,.01367.17676c-0.04687.05127-.13672,0.041-0.27246-0.082-0.65039-.59033-1.374-1.31787-1.42773-1.36719-0.01367-.01221-0.84863-0.69922-1.21387-1.03125-0.12207-.11035-0.167-0.19775-0.1084-0.26221a0.1207,0.1207,0,0,1,.17676-0.00439,2.44751,2.44751,0,0,0,.41309.28027c0.27734,0.15771.49219-.02441,0.83887-0.29785a28.76085,28.76085,0,0,0,2.2246-2.314Zm0.18555,1.86377a0.21788,0.21788,0,0,0-.04785.21582,5.71857,5.71857,0,0,0,1.16211,1.36084,2.18221,2.18221,0,0,0,1.07031.61816,2.98278,2.98278,0,0,0,2.13867-5.05127A7.30589,7.30589,0,0,0,223.667,48.728a0.19034,0.19034,0,0,0-.21191.043Z" transform="translate(-0.00001 -0.25959)"/><path class="cls-1" d="M233.44043,71.62939a1.61231,1.61231,0,0,0-.62794,1.62451,3.56921,3.56921,0,0,0,.57325.8833,0.10917,0.10917,0,0,1,.00391.165,0.29067,0.29067,0,0,1-.32031-0.15918c-0.23828-.27783-1.37988-1.66309-1.72168-2.14209-0.22363-.31445-0.23145-0.4043-0.17871-0.44971a0.12991,0.12991,0,0,1,.16406.00391,0.54008,0.54008,0,0,0,.44531-0.28467l5.1875-5.46533-0.02344-.02783-8.26855,1.98c-0.7041.16992-.86914,0.19092-0.96484,0.08008a1.02322,1.02322,0,0,1,.15918-0.85986c0.28125-.79639,1.03223-2.84033,1.37891-3.66846,0.4043-.97412,1.4502-3.58447,1.73438-4.19043l-0.04785-.05566-5.48535,3.88672c-0.18359.13379-.39551,0.31543-0.58105,0.47412a0.422,0.422,0,0,0-.06738.56445,2.70423,2.70423,0,0,0,.33984.5293,0.13716,0.13716,0,0,1,.00391.16553c-0.08008.06836-.17773,0.00732-0.29687-0.13086-0.39355-.459-0.85449-1.07715-0.9375-1.17432-0.0957-.11133-0.63574-0.66113-0.92187-0.99512-0.10645-.125-0.15234-0.231-0.07227-0.29932a0.15061,0.15061,0,0,1,.18652.05713,3.2389,3.2389,0,0,0,.34961.32764c0.41113,0.34619.833,0.0083,1.30469-.2998l8.10449-5.41064a0.24771,0.24771,0,0,1,.31836-0.03125,0.36684,0.36684,0,0,1,.042.39746l-3.81543,9.69189,10.02344-2.42432a0.34811,0.34811,0,0,1,.35156.03564c0.07129,0.0835.03809,0.23242-.14941,0.44189Z" transform="translate(-0.00001 -0.25959)"/><path class="cls-1" d="M245.16113,72.855c0.51855-.10156.63184-0.08887,0.69238,0.00293a0.73722,0.73722,0,0,1-.23926.61914c-0.36133.59033-4.041,6.12158-5.37207,8.1875-0.78125,1.22021-.69922,1.69238-0.59473,2.04a2.34415,2.34415,0,0,0,.28125.582,0.1723,0.1723,0,0,1,.00878.23535,0.35694,0.35694,0,0,1-.3037-0.23779c-0.13086-.19824-0.78711-1.19043-1.375-2.14014a0.79083,0.79083,0,0,1-.22559-0.53076c0.05859-.03857.07813-0.0083,0.14746,0.03369a0.275,0.275,0,0,0,.416-0.09961l2.03711-3.083a0.12544,0.12544,0,0,0-.00781-0.16992l-2.05078-3.09766a0.16834,0.16834,0,0,0-.19238-0.06982l-2.4834.54639a2.94832,2.94832,0,0,0-.96.35059,0.45875,0.45875,0,0,0-.03125.6792l0.08105,0.12207c0.07031,0.10693.04688,0.166-.01074,0.20459-0.07324.04834-.15234-0.00879-0.2334-0.12988-0.21191-.3208-0.65332-1.08252-0.75488-1.23486-0.09082-.1377-0.57812-0.78027-0.94238-1.32959-0.11133-.168-0.14258-0.27881-0.06934-0.32666a0.13947,0.13947,0,0,1,.18262.05469c0.06055,0.09131.20605,0.28027,0.291,0.37744a1.74145,1.74145,0,0,0,1.88184.37793Zm-4.15723,4.90381c0.04,0.061.06934,0.042,0.11719-.01172l2.50977-3.5708c0.1377-.20166.08789-0.27783-0.15234-0.229l-4.21582.99219c-0.06836.02295-.08789,0.05762-0.05762,0.10352Z" transform="translate(-0.00001 -0.25959)"/><path class="cls-1" d="M245.51855,86.29c-1.25586.68311-2.28223,1.24121-2.7832,1.59717a0.692,0.692,0,0,0-.39258.92188,6.40181,6.40181,0,0,0,.28906.67676,0.11173,0.11173,0,0,1-.0459.1709c-0.06152.0332-.14258-0.00635-0.23047-0.16943-0.41895-.77148-0.86328-1.69678-0.90625-1.77734-0.03516-.06445-0.61523-1.02-0.8418-1.43652-0.08789-.16113-0.0918-0.24219-0.01562-0.28369a0.10984,0.10984,0,0,1,.15332.0625,2.24606,2.24606,0,0,0,.28906.38477,0.75288,0.75288,0,0,0,.93164.03516c0.57129-.22754,1.59766-0.78564,2.85352-1.46875l5.46973-2.97412-1.1416-2.02588c-0.49609-.87646-0.77148-1.16406-1.19141-1.20654a2.35868,2.35868,0,0,0-.53613,0,0.1523,0.1523,0,0,1-.20117-0.07812,0.11874,0.11874,0,0,1,.05469-0.15479c0.1377-.0752,1.46-0.41895,1.5752-0.46094a0.57869,0.57869,0,0,1,.32422.01123,5.794,5.794,0,0,0,.1875.71045c0.17285,0.42725.45508,0.98242,0.542,1.14307l2.90332,5.33936a8.396,8.396,0,0,0,.61133.98c0.14453,0.19238.24512,0.30469,0.28027,0.36865,0.03516,0.06445-.042.10645-0.11816,0.14795-0.39844.21631-1.35937,0.67627-1.5127,0.75977a0.16846,0.16846,0,0,1-.23828-0.03711c-0.03516-.064-0.00586-0.12158.16895-0.2373l0.12891-.09131c0.37207-.26465.49707-0.72852-0.207-2.09619l-0.93066-1.78564Z" transform="translate(-0.00001 -0.25959)"/><path class="cls-1" d="M249.42871,95.45947a2.5391,2.5391,0,0,0,1.26074-.9126c0.15918-.20605,2.34277-3.499,2.85156-4.311a3.924,3.924,0,0,0,.58008-1.3999,1.63836,1.63836,0,0,0-.07129-0.70557,0.159,0.159,0,0,1,.06445-0.20605c0.06445-.02734.11719,0.00977,0.1748,0.14453,0.12109,0.28662.56055,1.41357,0.58887,1.481,0.043,0.10107.332,0.69482,0.5752,1.26758,0.07129,0.16846.05371,0.21582-.01074,0.24316a0.37362,0.37362,0,0,1-.24414-0.1748,0.25948,0.25948,0,0,0-.30371-0.09033,1.185,1.185,0,0,0-.44434.42676l-3.11035,4.50146c0.70605,0.05859,4.41309.67432,4.97656,0.75391a1.52389,1.52389,0,0,0,.81348-0.04687,0.34069,0.34069,0,0,0,.25293-0.38574,0.26212,0.26212,0,0,1,.06836-0.28711c0.04785-.02051.11523,0.05029,0.17969,0.20459,0.16406,0.38818.35352,0.9248,0.40332,1.043,0.043,0.10107.52539,1.1499,0.64648,1.43652a0.18079,0.18079,0,0,1-.002.21973,0.18332,0.18332,0,0,1-.22266-0.12793,1.71535,1.71535,0,0,0-.46973-0.6167,2.74811,2.74811,0,0,0-.98828-0.45605c-0.75293-.25732-4.84863-0.98682-5.55469-1.04541A2.82994,2.82994,0,0,0,250,96.80859l-1.17187.49658c-0.22461.09521-.80273,0.34033-1.34277,0.62891a0.69236,0.69236,0,0,0-.47949.87988,6.41394,6.41394,0,0,0,.22168.70166,0.12186,0.12186,0,0,1-.0625.16553c-0.06445.02734-.14844-0.03662-0.21289-0.186-0.34961-.82666-0.709-1.80811-0.74414-1.89258-0.02832-.06738-0.47656-0.9917-0.66211-1.43164-0.07129-.16846-0.06836-0.24951.01172-0.28369a0.12192,0.12192,0,0,1,.16309.07031,2.18572,2.18572,0,0,0,.25.41162,0.71032,0.71032,0,0,0,.90723.13184c0.57617-.20459,1.1543-0.44922,1.37891-0.54443Z" transform="translate(-0.00001 -0.25959)"/><path class="cls-1" d="M255.57031,102.729c2.19824-.687,2.59766-0.812,3.03613-0.9873a0.68363,0.68363,0,0,0,.58594-0.87354,5.34017,5.34017,0,0,0-.13086-0.53467,0.15185,0.15185,0,0,1,.07813-0.15869c0.083-.02588.13867,0.03369,0.19336,0.208,0.21875,0.69873.47949,1.65283,0.50684,1.73975,0.04395,0.14014.36719,1.05566,0.50879,1.51025,0.05469,0.1748.043,0.25488-.04,0.28076a0.13321,0.13321,0,0,1-.1543-0.08594,2.04622,2.04622,0,0,0-.15332-0.37354,0.689,0.689,0,0,0-.95215-0.29736c-0.46.10547-.86035,0.23047-3.05762,0.91748l-0.84863.26514,0.02148,0.06982c0.34277,0.16162,3.78125,2.09814,4.52734,2.49756a2.64724,2.64724,0,0,0,1.27734.52148,0.24546,0.24546,0,0,0,.22363-0.28076,0.16783,0.16783,0,0,1,.08887-0.18164c0.06641-.02051.12207,0.03906,0.1543,0.14307,0.09863,0.31445.21289,0.79639,0.32715,1.16309,0.02734,0.0874.37793,1.09033,0.498,1.47559,0.04883,0.15723.03809,0.23779-.02832,0.2583-0.06738.021-.12793,0.00146-0.166-0.12061a2.76623,2.76623,0,0,0-.46777-0.79395,5.64182,5.64182,0,0,0-1.70117-1.23242c-0.45312-.28027-3.66992-2.15186-4.123-2.37451-0.29.53174-2.33692,4.68115-2.69043,5.48193a7.05192,7.05192,0,0,0-.876,2.69043,3.6154,3.6154,0,0,0,.09473,1.00586,0.17654,0.17654,0,0,1-.05566.229c-0.06738.02051-.13867-0.03369-0.2207-0.2959l-0.24609-.78613a10.98607,10.98607,0,0,1-.2998-1.07617,3.48134,3.48134,0,0,1,.28125-2.14014c0.29785-.85986,2.5332-5.10693,3.13574-6.10059l-0.02148-.06982-1.38184.43164c-1.36523.42676-2.48047,0.77539-3.041,1.02734a0.69216,0.69216,0,0,0-.56348.82813,4.83469,4.83469,0,0,0,.11914.61475,0.12109,0.12109,0,0,1-.07812.15869c-0.06641.021-.13867-0.0332-0.19336-0.2085-0.23437-.751-0.47461-1.69287-0.5127-1.81494-0.03809-.12256-0.37793-1.03271-0.52539-1.50391-0.04883-.15723-0.043-0.25537.04-0.28125a0.12138,0.12138,0,0,1,.15527.08594,2.4182,2.4182,0,0,0,.21387.45068c0.15918,0.27637.43652,0.228,0.875,0.168a28.80823,28.80823,0,0,0,3.08984-.87012Z" transform="translate(-0.00001 -0.25959)"/><path class="cls-1" d="M256.72363,116.78418c-1.39453.31006-2.53516,0.56348-3.11426,0.76758a0.67837,0.67837,0,0,0-.63867.74219,6.95382,6.95382,0,0,0,.09179.72949,0.12149,0.12149,0,0,1-.09081.15186c-0.06836.01514-.13574-0.04492-0.17578-0.22363-0.19434-.87549-0.37109-1.90527-0.38672-1.97656-0.01953-.08936-0.29-1.061-0.39746-1.54346-0.03613-.16113-0.02148-0.25781.06348-0.27686a0.12079,0.12079,0,0,1,.14648.09863,2.46235,2.46235,0,0,0,.17578.46729,0.72246,0.72246,0,0,0,.85742.24072c0.61133-.061,1.75488-0.29639,3.15039-0.60693l2.55176-.56738c2.24609-.49951,2.6543-0.59033,3.10546-0.72852a0.69082,0.69082,0,0,0,.67188-0.67432,3.07155,3.07155,0,0,0-.05664-0.49365,0.13388,0.13388,0,0,1,.09082-0.15186c0.085-.01855.13477,0.04492,0.1748,0.22412,0.11523,0.51807.30078,1.5083,0.32031,1.59766,0.0166,0.07129.27734,1.08252,0.38477,1.56445,0.04,0.17871.02148,0.25781-.06348,0.27686a0.15151,0.15151,0,0,1-.14648-0.09863,1.90045,1.90045,0,0,0-.12207-0.38525c-0.18066-.41016-0.4043-0.4541-0.92285-0.37646-0.46387.08447-.87207,0.17529-3.11719,0.6748Z" transform="translate(-0.00001 -0.25959)"/><path class="cls-1" d="M259.7793,141.59717a0.1604,0.1604,0,0,0,0,.14014,0.0932,0.0932,0,0,0,.10547,0,5.0007,5.0007,0,0,0,1.97266-1.10059,0.47594,0.47594,0,0,1,.21094-0.13965,2.13777,2.13777,0,0,1,.58789,1.26025c0,0.1001-.06348.13965-0.252,0.17969-0.084.02-1.78516,0.06006-2.415,0.08008a0.231,0.231,0,0,0-.126.04,0.12055,0.12055,0,0,0,.02148.14014,6.76726,6.76726,0,0,0,1.76367,1.40039c0.18848,0.06055.23047,0.10059,0.23047,0.18066a1.6803,1.6803,0,0,1-1.07031,1,0.47094,0.47094,0,0,1-.29492-0.28027,17.36115,17.36115,0,0,1-.90234-2.06055,0.18567,0.18567,0,0,0-.084-0.12012,0.07832,0.07832,0,0,0-.084.06006c-0.10547.15967-.69336,1.38037-0.79785,1.66064a1.65933,1.65933,0,0,0-.126.46c0,0.05957-.084.09961-0.252,0.09961a2.10144,2.10144,0,0,1-1.32227-.25977,0.4902,0.4902,0,0,1,.14648-0.32031c0.23047-.2998,1.82617-1.6001,2.09961-1.82031a0.16931,0.16931,0,0,0,.0625-0.12012,0.07221,0.07221,0,0,0-.084-0.06006,12.60194,12.60194,0,0,0-1.99414-.14014,1.08815,1.08815,0,0,0-.252.06006,2.77767,2.77767,0,0,1-.23047-1.34033,0.17656,0.17656,0,0,1,.209-0.15967,6.97825,6.97825,0,0,1,2.373,1.28027,0.171,0.171,0,0,0,.168.02,0.27857,0.27857,0,0,0,.02148-0.14014,10.47735,10.47735,0,0,0-.54687-1.96045,0.75338,0.75338,0,0,1-.084-0.22021,2.17045,2.17045,0,0,1,1.34375-.58008c0.10547,0,.168.06006,0.168,0.22021A11.87274,11.87274,0,0,1,259.7793,141.59717Z" transform="translate(-0.00001 -0.25959)"/><path class="cls-1" d="M23.89258,141.59717a0.1604,0.1604,0,0,0,0,.14014,0.0932,0.0932,0,0,0,.10547,0,5.0007,5.0007,0,0,0,1.97266-1.10059,0.47594,0.47594,0,0,1,.21094-0.13965,2.13777,2.13777,0,0,1,.58789,1.26025c0,0.1001-.06348.13965-0.252,0.17969-0.084.02-1.78516,0.06006-2.415,0.08008a0.231,0.231,0,0,0-.126.04,0.12055,0.12055,0,0,0,.02148.14014,6.76726,6.76726,0,0,0,1.76367,1.40039c0.18848,0.06055.23047,0.10059,0.23047,0.18066a1.6803,1.6803,0,0,1-1.07031,1A0.47094,0.47094,0,0,1,24.627,144.498a17.36115,17.36115,0,0,1-.90234-2.06055,0.18567,0.18567,0,0,0-.084-0.12012,0.07832,0.07832,0,0,0-.084.06006c-0.10547.15967-.69336,1.38037-0.79785,1.66064a1.65933,1.65933,0,0,0-.126.46c0,0.05957-.084.09961-0.252,0.09961a2.10144,2.10144,0,0,1-1.32227-.25977,0.4902,0.4902,0,0,1,.14648-0.32031c0.23047-.2998,1.82617-1.6001,2.09961-1.82031a0.16931,0.16931,0,0,0,.0625-0.12012,0.07221,0.07221,0,0,0-.084-0.06006,12.60189,12.60189,0,0,0-1.99414-.14014,1.08815,1.08815,0,0,0-.252.06006,2.77767,2.77767,0,0,1-.23047-1.34033,0.17656,0.17656,0,0,1,.209-0.15967,6.97825,6.97825,0,0,1,2.373,1.28027,0.171,0.171,0,0,0,.168.02,0.27857,0.27857,0,0,0,.02148-0.14014,10.47734,10.47734,0,0,0-.54687-1.96045,0.75338,0.75338,0,0,1-.084-0.22021,2.17045,2.17045,0,0,1,1.34375-.58008c0.10547,0,.168.06006,0.168,0.22021A11.87274,11.87274,0,0,1,23.89258,141.59717Z" transform="translate(-0.00001 -0.25959)"/></svg>